G04 #@! TF.GenerationSoftware,KiCad,Pcbnew,(5.1.0)-1*
G04 #@! TF.CreationDate,2020-08-30T01:34:27+02:00*
G04 #@! TF.ProjectId,Dosimeter,446f7369-6d65-4746-9572-2e6b69636164,rev?*
G04 #@! TF.SameCoordinates,Original*
G04 #@! TF.FileFunction,Copper,L2,Bot*
G04 #@! TF.FilePolarity,Positive*
%FSLAX46Y46*%
G04 Gerber Fmt 4.6, Leading zero omitted, Abs format (unit mm)*
G04 Created by KiCad (PCBNEW (5.1.0)-1) date 2020-08-30 01:34:27*
%MOMM*%
%LPD*%
G04 APERTURE LIST*
%ADD10O,1.600000X1.600000*%
%ADD11C,1.600000*%
%ADD12O,1.700000X1.700000*%
%ADD13R,1.700000X1.700000*%
%ADD14C,1.524000*%
%ADD15C,2.000000*%
%ADD16R,2.000000X2.000000*%
%ADD17C,1.440000*%
%ADD18C,2.200000*%
%ADD19R,2.200000X2.200000*%
%ADD20O,2.400000X2.400000*%
%ADD21R,2.400000X2.400000*%
%ADD22C,3.000000*%
%ADD23C,0.800000*%
%ADD24C,0.500000*%
%ADD25C,0.800000*%
%ADD26C,0.254000*%
G04 APERTURE END LIST*
D10*
X31496000Y-113246000D03*
D11*
X31496000Y-125746000D03*
D12*
X83439000Y-108077000D03*
X83439000Y-110617000D03*
X83439000Y-113157000D03*
D13*
X83439000Y-115697000D03*
D14*
X101540000Y-123700000D03*
X104080000Y-123700000D03*
X106620000Y-123700000D03*
X96460000Y-123700000D03*
X93920000Y-123700000D03*
X91380000Y-123700000D03*
X110430000Y-68300000D03*
X107890000Y-68300000D03*
X105350000Y-68300000D03*
X102810000Y-68300000D03*
X100270000Y-68300000D03*
X97730000Y-68300000D03*
X95190000Y-68300000D03*
X92650000Y-68300000D03*
X90110000Y-68300000D03*
X87570000Y-68300000D03*
D15*
X110375000Y-85346000D03*
X110375000Y-72646000D03*
D13*
X66452000Y-73660000D03*
D14*
X52812000Y-73660000D03*
X60432000Y-71120000D03*
X60432000Y-76200000D03*
X29812000Y-73660000D03*
X37432000Y-71120000D03*
X37432000Y-76200000D03*
D15*
X92202000Y-105684000D03*
D16*
X92202000Y-113284000D03*
D12*
X75057000Y-87376000D03*
D13*
X75057000Y-84836000D03*
D12*
X75057000Y-75692000D03*
D13*
X75057000Y-73152000D03*
D17*
X80772000Y-97282000D03*
X83312000Y-94742000D03*
X80772000Y-92202000D03*
D18*
X115316000Y-104460000D03*
D19*
X115316000Y-107000000D03*
D17*
X80782000Y-104902000D03*
X83322000Y-102362000D03*
X80782000Y-99822000D03*
D20*
X31496000Y-109378000D03*
D21*
X31496000Y-94138000D03*
D22*
X39878000Y-107000000D03*
X39838000Y-119700000D03*
X39878000Y-94300000D03*
X70358000Y-117160000D03*
X70358000Y-96840000D03*
D23*
X97282000Y-92964000D03*
X100965000Y-96647000D03*
X103505000Y-106172000D03*
X105156000Y-100965000D03*
X89408000Y-100838000D03*
X109728000Y-95250000D03*
X92456000Y-90043000D03*
X108966000Y-113665000D03*
X109093000Y-106299000D03*
X93954500Y-118643500D03*
X108236696Y-117014517D03*
X91738986Y-97116000D03*
X107061000Y-117864517D03*
X91059000Y-96266000D03*
X89636500Y-89941500D03*
X86614000Y-99822000D03*
X81534000Y-73152000D03*
X86402000Y-81828000D03*
X78105000Y-105918000D03*
X103632000Y-118745000D03*
X112141000Y-101981000D03*
X114554000Y-101981000D03*
X113411000Y-101981000D03*
D24*
X79763767Y-104902000D02*
X80782000Y-104902000D01*
X78994000Y-104132233D02*
X79763767Y-104902000D01*
X78994000Y-98041767D02*
X78994000Y-104132233D01*
X79753767Y-97282000D02*
X78994000Y-98041767D01*
X80772000Y-97282000D02*
X79753767Y-97282000D01*
D25*
X115570000Y-99695000D02*
X108839000Y-99695000D01*
X107569000Y-100965000D02*
X105156000Y-100965000D01*
X108839000Y-99695000D02*
X107569000Y-100965000D01*
X116141500Y-102078866D02*
X116141500Y-100266500D01*
X115316000Y-102904366D02*
X116141500Y-102078866D01*
X115316000Y-104460000D02*
X115316000Y-102904366D01*
X116141500Y-100266500D02*
X115570000Y-99695000D01*
D24*
X109093000Y-113538000D02*
X108966000Y-113665000D01*
X109093000Y-106299000D02*
X109093000Y-113538000D01*
X108966000Y-114230685D02*
X109220000Y-114484685D01*
X108966000Y-113665000D02*
X108966000Y-114230685D01*
X109220000Y-114484685D02*
X109220000Y-119126000D01*
X109220000Y-119126000D02*
X108839000Y-119507000D01*
X92456000Y-90043000D02*
X107823000Y-90043000D01*
X109728000Y-91948000D02*
X109728000Y-95250000D01*
X107823000Y-90043000D02*
X109728000Y-91948000D01*
X108331000Y-120015000D02*
X109220000Y-119126000D01*
X95326000Y-120015000D02*
X108331000Y-120015000D01*
X93954500Y-118643500D02*
X95326000Y-120015000D01*
X82677000Y-96774000D02*
X80772000Y-94869000D01*
X84963000Y-96774000D02*
X82677000Y-96774000D01*
X92456000Y-89477315D02*
X91624685Y-88646000D01*
X91624685Y-88646000D02*
X86995000Y-88646000D01*
X80772000Y-94869000D02*
X80772000Y-92202000D01*
X86995000Y-88646000D02*
X86106000Y-89535000D01*
X92456000Y-90043000D02*
X92456000Y-89477315D01*
X86106000Y-89535000D02*
X86106000Y-95631000D01*
X86106000Y-95631000D02*
X84963000Y-96774000D01*
X99822000Y-101473000D02*
X99822000Y-114427000D01*
X99822000Y-114427000D02*
X100584000Y-115189000D01*
X102409517Y-117014517D02*
X99822000Y-114427000D01*
X108236696Y-117014517D02*
X102409517Y-117014517D01*
X91738986Y-97116000D02*
X91738986Y-97896976D01*
X96708990Y-98359990D02*
X96901000Y-98552000D01*
X92202000Y-98359990D02*
X96708990Y-98359990D01*
X91738986Y-97896976D02*
X92202000Y-98359990D01*
X96901000Y-98552000D02*
X99822000Y-101473000D01*
X90551000Y-96774000D02*
X91059000Y-96266000D01*
X90551000Y-98482685D02*
X90551000Y-96774000D01*
X107061000Y-117864517D02*
X102269555Y-117864517D01*
X102269555Y-117864517D02*
X99121990Y-114716953D01*
X99121990Y-114716953D02*
X99121990Y-101762952D01*
X99121990Y-101762952D02*
X96419038Y-99060000D01*
X96419038Y-99060000D02*
X91128315Y-99060000D01*
X91128315Y-99060000D02*
X90551000Y-98482685D01*
X89636500Y-96799500D02*
X89636500Y-89941500D01*
X86614000Y-99822000D02*
X89636500Y-96799500D01*
X83312000Y-89027000D02*
X83312000Y-94742000D01*
X85344000Y-86995000D02*
X83312000Y-89027000D01*
X90424000Y-86995000D02*
X85344000Y-86995000D01*
X92650000Y-68300000D02*
X92650000Y-84769000D01*
X92650000Y-84769000D02*
X90424000Y-86995000D01*
X81534000Y-73152000D02*
X75057000Y-73152000D01*
X75057000Y-84836000D02*
X85725000Y-84836000D01*
X85725000Y-84836000D02*
X86402000Y-84159000D01*
X86402000Y-84159000D02*
X86402000Y-81828000D01*
X78105000Y-105918000D02*
X78105000Y-98298000D01*
X76647000Y-96840000D02*
X70358000Y-96840000D01*
X78105000Y-98298000D02*
X76647000Y-96840000D01*
D25*
X112141000Y-101981000D02*
X112141000Y-105918000D01*
X112141000Y-105918000D02*
X113223000Y-107000000D01*
X112141000Y-101981000D02*
X112706685Y-101981000D01*
X112706685Y-101981000D02*
X113411000Y-101981000D01*
X114554000Y-101981000D02*
X114554000Y-101981000D01*
X113411000Y-101981000D02*
X114554000Y-101981000D01*
X115316000Y-107000000D02*
X113223000Y-107000000D01*
D24*
X98421980Y-115006906D02*
X102160074Y-118745000D01*
X78105000Y-105918000D02*
X78504999Y-106317999D01*
X78504999Y-106317999D02*
X85870999Y-106317999D01*
X85870999Y-106317999D02*
X87884000Y-108331000D01*
X102160074Y-118745000D02*
X103632000Y-118745000D01*
X87884000Y-108331000D02*
X96647000Y-108331000D01*
X96647000Y-108331000D02*
X98421980Y-110105980D01*
X98421980Y-110105980D02*
X98421980Y-115006906D01*
D26*
G36*
X118340001Y-103377844D02*
G01*
X118201652Y-103320539D01*
X117972712Y-103275000D01*
X117739288Y-103275000D01*
X117510348Y-103320539D01*
X117294692Y-103409866D01*
X117100606Y-103539550D01*
X116935550Y-103704606D01*
X116906445Y-103748165D01*
X116903336Y-103739034D01*
X116797338Y-103540726D01*
X116522712Y-103432893D01*
X115495605Y-104460000D01*
X115509748Y-104474143D01*
X115330143Y-104653748D01*
X115316000Y-104639605D01*
X115301858Y-104653748D01*
X115122253Y-104474143D01*
X115136395Y-104460000D01*
X114109288Y-103432893D01*
X113834662Y-103540726D01*
X113683784Y-103847384D01*
X113595631Y-104177585D01*
X113573591Y-104518639D01*
X113618511Y-104857439D01*
X113728664Y-105180966D01*
X113834662Y-105379274D01*
X113844733Y-105383228D01*
X113764815Y-105448815D01*
X113685463Y-105545506D01*
X113626498Y-105655820D01*
X113590188Y-105775518D01*
X113578715Y-105892005D01*
X113176000Y-105489290D01*
X113176000Y-103016000D01*
X114382065Y-103016000D01*
X114288893Y-103253288D01*
X115316000Y-104280395D01*
X116343107Y-103253288D01*
X116235274Y-102978662D01*
X115928616Y-102827784D01*
X115598415Y-102739631D01*
X115285708Y-102719423D01*
X115289396Y-102716396D01*
X115321803Y-102676908D01*
X115357937Y-102640774D01*
X115386328Y-102598284D01*
X115418734Y-102558797D01*
X115442814Y-102513746D01*
X115471205Y-102471256D01*
X115490762Y-102424042D01*
X115514841Y-102378993D01*
X115529669Y-102330113D01*
X115549226Y-102282898D01*
X115559196Y-102232777D01*
X115574024Y-102183895D01*
X115579031Y-102133057D01*
X115589000Y-102082939D01*
X115589000Y-102031838D01*
X115594007Y-101981000D01*
X115589000Y-101930162D01*
X115589000Y-101879061D01*
X115579031Y-101828943D01*
X115574024Y-101778105D01*
X115559196Y-101729223D01*
X115549226Y-101679102D01*
X115529669Y-101631887D01*
X115514841Y-101583007D01*
X115490762Y-101537958D01*
X115471205Y-101490744D01*
X115442814Y-101448254D01*
X115418734Y-101403203D01*
X115386328Y-101363716D01*
X115357937Y-101321226D01*
X115321803Y-101285092D01*
X115289396Y-101245604D01*
X115249908Y-101213197D01*
X115213774Y-101177063D01*
X115171284Y-101148672D01*
X115131797Y-101116266D01*
X115086746Y-101092186D01*
X115044256Y-101063795D01*
X114997042Y-101044238D01*
X114951993Y-101020159D01*
X114903113Y-101005331D01*
X114855898Y-100985774D01*
X114805777Y-100975804D01*
X114756895Y-100960976D01*
X114706057Y-100955969D01*
X114655939Y-100946000D01*
X112191838Y-100946000D01*
X112141000Y-100940993D01*
X112090162Y-100946000D01*
X112039061Y-100946000D01*
X111988943Y-100955969D01*
X111938105Y-100960976D01*
X111889223Y-100975804D01*
X111839102Y-100985774D01*
X111791887Y-101005331D01*
X111743007Y-101020159D01*
X111697958Y-101044238D01*
X111650744Y-101063795D01*
X111608254Y-101092186D01*
X111563203Y-101116266D01*
X111523716Y-101148672D01*
X111481226Y-101177063D01*
X111445092Y-101213197D01*
X111405604Y-101245604D01*
X111373197Y-101285092D01*
X111337063Y-101321226D01*
X111308672Y-101363716D01*
X111276266Y-101403203D01*
X111252186Y-101448254D01*
X111223795Y-101490744D01*
X111204238Y-101537958D01*
X111180159Y-101583007D01*
X111165331Y-101631887D01*
X111145774Y-101679102D01*
X111135804Y-101729223D01*
X111120976Y-101778105D01*
X111115969Y-101828943D01*
X111106000Y-101879061D01*
X111106000Y-101930162D01*
X111100993Y-101981000D01*
X111106000Y-102031838D01*
X111106001Y-105867162D01*
X111100994Y-105918000D01*
X111120977Y-106120895D01*
X111180160Y-106315993D01*
X111276266Y-106495797D01*
X111362521Y-106600898D01*
X111405605Y-106653396D01*
X111445092Y-106685802D01*
X112455197Y-107695908D01*
X112487604Y-107735396D01*
X112527092Y-107767803D01*
X112645202Y-107864734D01*
X112741309Y-107916104D01*
X112825007Y-107960841D01*
X113020105Y-108020024D01*
X113172162Y-108035000D01*
X113172171Y-108035000D01*
X113222999Y-108040006D01*
X113273827Y-108035000D01*
X113577928Y-108035000D01*
X113577928Y-108100000D01*
X113590188Y-108224482D01*
X113626498Y-108344180D01*
X113685463Y-108454494D01*
X113764815Y-108551185D01*
X113861506Y-108630537D01*
X113971820Y-108689502D01*
X114091518Y-108725812D01*
X114216000Y-108738072D01*
X116416000Y-108738072D01*
X116540482Y-108725812D01*
X116660180Y-108689502D01*
X116770494Y-108630537D01*
X116867185Y-108551185D01*
X116946537Y-108454494D01*
X117005502Y-108344180D01*
X117041812Y-108224482D01*
X117054072Y-108100000D01*
X117054072Y-107873916D01*
X117100606Y-107920450D01*
X117294692Y-108050134D01*
X117510348Y-108139461D01*
X117739288Y-108185000D01*
X117972712Y-108185000D01*
X118201652Y-108139461D01*
X118340001Y-108082156D01*
X118340001Y-130340000D01*
X86487000Y-130340000D01*
X86487000Y-123562408D01*
X89983000Y-123562408D01*
X89983000Y-123837592D01*
X90036686Y-124107490D01*
X90141995Y-124361727D01*
X90294880Y-124590535D01*
X90489465Y-124785120D01*
X90718273Y-124938005D01*
X90972510Y-125043314D01*
X91242408Y-125097000D01*
X91517592Y-125097000D01*
X91787490Y-125043314D01*
X92041727Y-124938005D01*
X92270535Y-124785120D01*
X92465120Y-124590535D01*
X92618005Y-124361727D01*
X92650000Y-124284485D01*
X92681995Y-124361727D01*
X92834880Y-124590535D01*
X93029465Y-124785120D01*
X93258273Y-124938005D01*
X93512510Y-125043314D01*
X93782408Y-125097000D01*
X94057592Y-125097000D01*
X94327490Y-125043314D01*
X94581727Y-124938005D01*
X94810535Y-124785120D01*
X95005120Y-124590535D01*
X95158005Y-124361727D01*
X95190000Y-124284485D01*
X95221995Y-124361727D01*
X95374880Y-124590535D01*
X95569465Y-124785120D01*
X95798273Y-124938005D01*
X96052510Y-125043314D01*
X96322408Y-125097000D01*
X96597592Y-125097000D01*
X96867490Y-125043314D01*
X97121727Y-124938005D01*
X97350535Y-124785120D01*
X97545120Y-124590535D01*
X97698005Y-124361727D01*
X97803314Y-124107490D01*
X97857000Y-123837592D01*
X97857000Y-123562408D01*
X100143000Y-123562408D01*
X100143000Y-123837592D01*
X100196686Y-124107490D01*
X100301995Y-124361727D01*
X100454880Y-124590535D01*
X100649465Y-124785120D01*
X100878273Y-124938005D01*
X101132510Y-125043314D01*
X101402408Y-125097000D01*
X101677592Y-125097000D01*
X101947490Y-125043314D01*
X102201727Y-124938005D01*
X102430535Y-124785120D01*
X102625120Y-124590535D01*
X102778005Y-124361727D01*
X102810000Y-124284485D01*
X102841995Y-124361727D01*
X102994880Y-124590535D01*
X103189465Y-124785120D01*
X103418273Y-124938005D01*
X103672510Y-125043314D01*
X103942408Y-125097000D01*
X104217592Y-125097000D01*
X104487490Y-125043314D01*
X104741727Y-124938005D01*
X104970535Y-124785120D01*
X105165120Y-124590535D01*
X105318005Y-124361727D01*
X105350000Y-124284485D01*
X105381995Y-124361727D01*
X105534880Y-124590535D01*
X105729465Y-124785120D01*
X105958273Y-124938005D01*
X106212510Y-125043314D01*
X106482408Y-125097000D01*
X106757592Y-125097000D01*
X107027490Y-125043314D01*
X107281727Y-124938005D01*
X107510535Y-124785120D01*
X107705120Y-124590535D01*
X107858005Y-124361727D01*
X107963314Y-124107490D01*
X108017000Y-123837592D01*
X108017000Y-123562408D01*
X107963314Y-123292510D01*
X107858005Y-123038273D01*
X107705120Y-122809465D01*
X107510535Y-122614880D01*
X107281727Y-122461995D01*
X107027490Y-122356686D01*
X106757592Y-122303000D01*
X106482408Y-122303000D01*
X106212510Y-122356686D01*
X105958273Y-122461995D01*
X105729465Y-122614880D01*
X105534880Y-122809465D01*
X105381995Y-123038273D01*
X105350000Y-123115515D01*
X105318005Y-123038273D01*
X105165120Y-122809465D01*
X104970535Y-122614880D01*
X104741727Y-122461995D01*
X104487490Y-122356686D01*
X104217592Y-122303000D01*
X103942408Y-122303000D01*
X103672510Y-122356686D01*
X103418273Y-122461995D01*
X103189465Y-122614880D01*
X102994880Y-122809465D01*
X102841995Y-123038273D01*
X102810000Y-123115515D01*
X102778005Y-123038273D01*
X102625120Y-122809465D01*
X102430535Y-122614880D01*
X102201727Y-122461995D01*
X101947490Y-122356686D01*
X101677592Y-122303000D01*
X101402408Y-122303000D01*
X101132510Y-122356686D01*
X100878273Y-122461995D01*
X100649465Y-122614880D01*
X100454880Y-122809465D01*
X100301995Y-123038273D01*
X100196686Y-123292510D01*
X100143000Y-123562408D01*
X97857000Y-123562408D01*
X97803314Y-123292510D01*
X97698005Y-123038273D01*
X97545120Y-122809465D01*
X97350535Y-122614880D01*
X97121727Y-122461995D01*
X96867490Y-122356686D01*
X96597592Y-122303000D01*
X96322408Y-122303000D01*
X96052510Y-122356686D01*
X95798273Y-122461995D01*
X95569465Y-122614880D01*
X95374880Y-122809465D01*
X95221995Y-123038273D01*
X95190000Y-123115515D01*
X95158005Y-123038273D01*
X95005120Y-122809465D01*
X94810535Y-122614880D01*
X94581727Y-122461995D01*
X94327490Y-122356686D01*
X94057592Y-122303000D01*
X93782408Y-122303000D01*
X93512510Y-122356686D01*
X93258273Y-122461995D01*
X93029465Y-122614880D01*
X92834880Y-122809465D01*
X92681995Y-123038273D01*
X92650000Y-123115515D01*
X92618005Y-123038273D01*
X92465120Y-122809465D01*
X92270535Y-122614880D01*
X92041727Y-122461995D01*
X91787490Y-122356686D01*
X91517592Y-122303000D01*
X91242408Y-122303000D01*
X90972510Y-122356686D01*
X90718273Y-122461995D01*
X90489465Y-122614880D01*
X90294880Y-122809465D01*
X90141995Y-123038273D01*
X90036686Y-123292510D01*
X89983000Y-123562408D01*
X86487000Y-123562408D01*
X86487000Y-122174000D01*
X86484560Y-122149224D01*
X86477333Y-122125399D01*
X86465597Y-122103443D01*
X86449803Y-122084197D01*
X86430557Y-122068403D01*
X86408601Y-122056667D01*
X86384776Y-122049440D01*
X86360000Y-122047000D01*
X85678899Y-122047000D01*
X85475349Y-121843450D01*
X85084721Y-121582440D01*
X84650679Y-121402654D01*
X84189902Y-121311000D01*
X83720098Y-121311000D01*
X83259321Y-121402654D01*
X82825279Y-121582440D01*
X82434651Y-121843450D01*
X82231101Y-122047000D01*
X37719000Y-122047000D01*
X37719000Y-121191653D01*
X38525952Y-121191653D01*
X38681962Y-121507214D01*
X39056745Y-121698020D01*
X39461551Y-121812044D01*
X39880824Y-121844902D01*
X40298451Y-121795334D01*
X40698383Y-121665243D01*
X40994038Y-121507214D01*
X41150048Y-121191653D01*
X39838000Y-119879605D01*
X38525952Y-121191653D01*
X37719000Y-121191653D01*
X37719000Y-119961057D01*
X37742666Y-120160451D01*
X37872757Y-120560383D01*
X38030786Y-120856038D01*
X38346347Y-121012048D01*
X39658395Y-119700000D01*
X40017605Y-119700000D01*
X41329653Y-121012048D01*
X41645214Y-120856038D01*
X41836020Y-120481255D01*
X41950044Y-120076449D01*
X41982902Y-119657176D01*
X41933334Y-119239549D01*
X41803243Y-118839617D01*
X41702776Y-118651653D01*
X69045952Y-118651653D01*
X69201962Y-118967214D01*
X69576745Y-119158020D01*
X69981551Y-119272044D01*
X70400824Y-119304902D01*
X70818451Y-119255334D01*
X71218383Y-119125243D01*
X71514038Y-118967214D01*
X71670048Y-118651653D01*
X70358000Y-117339605D01*
X69045952Y-118651653D01*
X41702776Y-118651653D01*
X41645214Y-118543962D01*
X41329653Y-118387952D01*
X40017605Y-119700000D01*
X39658395Y-119700000D01*
X38346347Y-118387952D01*
X38030786Y-118543962D01*
X37839980Y-118918745D01*
X37725956Y-119323551D01*
X37719000Y-119412311D01*
X37719000Y-118208347D01*
X38525952Y-118208347D01*
X39838000Y-119520395D01*
X41150048Y-118208347D01*
X40994038Y-117892786D01*
X40619255Y-117701980D01*
X40214449Y-117587956D01*
X39795176Y-117555098D01*
X39377549Y-117604666D01*
X38977617Y-117734757D01*
X38681962Y-117892786D01*
X38525952Y-118208347D01*
X37719000Y-118208347D01*
X37719000Y-117202824D01*
X68213098Y-117202824D01*
X68262666Y-117620451D01*
X68392757Y-118020383D01*
X68550786Y-118316038D01*
X68866347Y-118472048D01*
X70178395Y-117160000D01*
X70537605Y-117160000D01*
X71849653Y-118472048D01*
X72165214Y-118316038D01*
X72356020Y-117941255D01*
X72470044Y-117536449D01*
X72502902Y-117117176D01*
X72453334Y-116699549D01*
X72323243Y-116299617D01*
X72165214Y-116003962D01*
X71849653Y-115847952D01*
X70537605Y-117160000D01*
X70178395Y-117160000D01*
X68866347Y-115847952D01*
X68550786Y-116003962D01*
X68359980Y-116378745D01*
X68245956Y-116783551D01*
X68213098Y-117202824D01*
X37719000Y-117202824D01*
X37719000Y-116459000D01*
X56896000Y-116459000D01*
X56929398Y-116454530D01*
X56952661Y-116445660D01*
X56973746Y-116432422D01*
X57960676Y-115668347D01*
X69045952Y-115668347D01*
X70358000Y-116980395D01*
X71670048Y-115668347D01*
X71514038Y-115352786D01*
X71139255Y-115161980D01*
X70734449Y-115047956D01*
X70315176Y-115015098D01*
X69897549Y-115064666D01*
X69497617Y-115194757D01*
X69201962Y-115352786D01*
X69045952Y-115668347D01*
X57960676Y-115668347D01*
X64485332Y-110617000D01*
X81946815Y-110617000D01*
X81975487Y-110908111D01*
X82060401Y-111188034D01*
X82198294Y-111446014D01*
X82383866Y-111672134D01*
X82609986Y-111857706D01*
X82664791Y-111887000D01*
X82609986Y-111916294D01*
X82383866Y-112101866D01*
X82198294Y-112327986D01*
X82060401Y-112585966D01*
X81975487Y-112865889D01*
X81946815Y-113157000D01*
X81975487Y-113448111D01*
X82060401Y-113728034D01*
X82198294Y-113986014D01*
X82383866Y-114212134D01*
X82413687Y-114236607D01*
X82344820Y-114257498D01*
X82234506Y-114316463D01*
X82137815Y-114395815D01*
X82058463Y-114492506D01*
X81999498Y-114602820D01*
X81963188Y-114722518D01*
X81950928Y-114847000D01*
X81950928Y-116547000D01*
X81963188Y-116671482D01*
X81999498Y-116791180D01*
X82058463Y-116901494D01*
X82137815Y-116998185D01*
X82234506Y-117077537D01*
X82344820Y-117136502D01*
X82464518Y-117172812D01*
X82589000Y-117185072D01*
X84289000Y-117185072D01*
X84413482Y-117172812D01*
X84533180Y-117136502D01*
X84643494Y-117077537D01*
X84740185Y-116998185D01*
X84819537Y-116901494D01*
X84878502Y-116791180D01*
X84914812Y-116671482D01*
X84927072Y-116547000D01*
X84927072Y-114847000D01*
X84914812Y-114722518D01*
X84878502Y-114602820D01*
X84819537Y-114492506D01*
X84740185Y-114395815D01*
X84643494Y-114316463D01*
X84533180Y-114257498D01*
X84464313Y-114236607D01*
X84494134Y-114212134D01*
X84679706Y-113986014D01*
X84817599Y-113728034D01*
X84902513Y-113448111D01*
X84931185Y-113157000D01*
X84902513Y-112865889D01*
X84817599Y-112585966D01*
X84679706Y-112327986D01*
X84643608Y-112284000D01*
X90563928Y-112284000D01*
X90563928Y-114284000D01*
X90576188Y-114408482D01*
X90612498Y-114528180D01*
X90671463Y-114638494D01*
X90750815Y-114735185D01*
X90847506Y-114814537D01*
X90957820Y-114873502D01*
X91077518Y-114909812D01*
X91202000Y-114922072D01*
X93202000Y-114922072D01*
X93326482Y-114909812D01*
X93446180Y-114873502D01*
X93556494Y-114814537D01*
X93653185Y-114735185D01*
X93732537Y-114638494D01*
X93791502Y-114528180D01*
X93827812Y-114408482D01*
X93840072Y-114284000D01*
X93840072Y-112284000D01*
X93827812Y-112159518D01*
X93791502Y-112039820D01*
X93732537Y-111929506D01*
X93653185Y-111832815D01*
X93556494Y-111753463D01*
X93446180Y-111694498D01*
X93326482Y-111658188D01*
X93202000Y-111645928D01*
X91202000Y-111645928D01*
X91077518Y-111658188D01*
X90957820Y-111694498D01*
X90847506Y-111753463D01*
X90750815Y-111832815D01*
X90671463Y-111929506D01*
X90612498Y-112039820D01*
X90576188Y-112159518D01*
X90563928Y-112284000D01*
X84643608Y-112284000D01*
X84494134Y-112101866D01*
X84268014Y-111916294D01*
X84213209Y-111887000D01*
X84268014Y-111857706D01*
X84494134Y-111672134D01*
X84679706Y-111446014D01*
X84817599Y-111188034D01*
X84902513Y-110908111D01*
X84931185Y-110617000D01*
X84902513Y-110325889D01*
X84817599Y-110045966D01*
X84679706Y-109787986D01*
X84494134Y-109561866D01*
X84268014Y-109376294D01*
X84203477Y-109341799D01*
X84320355Y-109272178D01*
X84536588Y-109077269D01*
X84710641Y-108843920D01*
X84835825Y-108581099D01*
X84880476Y-108433890D01*
X84759155Y-108204000D01*
X83566000Y-108204000D01*
X83566000Y-108224000D01*
X83312000Y-108224000D01*
X83312000Y-108204000D01*
X82118845Y-108204000D01*
X81997524Y-108433890D01*
X82042175Y-108581099D01*
X82167359Y-108843920D01*
X82341412Y-109077269D01*
X82557645Y-109272178D01*
X82674523Y-109341799D01*
X82609986Y-109376294D01*
X82383866Y-109561866D01*
X82198294Y-109787986D01*
X82060401Y-110045966D01*
X81975487Y-110325889D01*
X81946815Y-110617000D01*
X64485332Y-110617000D01*
X64847746Y-110336422D01*
X64859803Y-110325803D01*
X64875597Y-110306557D01*
X64887333Y-110284601D01*
X64894560Y-110260776D01*
X64897000Y-110236000D01*
X64897000Y-96629721D01*
X68223000Y-96629721D01*
X68223000Y-97050279D01*
X68305047Y-97462756D01*
X68465988Y-97851302D01*
X68699637Y-98200983D01*
X68997017Y-98498363D01*
X69346698Y-98732012D01*
X69735244Y-98892953D01*
X70147721Y-98975000D01*
X70568279Y-98975000D01*
X70980756Y-98892953D01*
X71369302Y-98732012D01*
X71718983Y-98498363D01*
X72016363Y-98200983D01*
X72250012Y-97851302D01*
X72302328Y-97725000D01*
X76280422Y-97725000D01*
X77220001Y-98664580D01*
X77220000Y-105379546D01*
X77187795Y-105427744D01*
X77109774Y-105616102D01*
X77070000Y-105816061D01*
X77070000Y-106019939D01*
X77109774Y-106219898D01*
X77187795Y-106408256D01*
X77301063Y-106577774D01*
X77445226Y-106721937D01*
X77614744Y-106835205D01*
X77803102Y-106913226D01*
X77857494Y-106924045D01*
X77876182Y-106946816D01*
X78010940Y-107057410D01*
X78164686Y-107139588D01*
X78331509Y-107190194D01*
X78461522Y-107202999D01*
X78461532Y-107202999D01*
X78504998Y-107207280D01*
X78548465Y-107202999D01*
X82247230Y-107202999D01*
X82167359Y-107310080D01*
X82042175Y-107572901D01*
X81997524Y-107720110D01*
X82118845Y-107950000D01*
X83312000Y-107950000D01*
X83312000Y-107930000D01*
X83566000Y-107930000D01*
X83566000Y-107950000D01*
X84759155Y-107950000D01*
X84880476Y-107720110D01*
X84835825Y-107572901D01*
X84710641Y-107310080D01*
X84630770Y-107202999D01*
X85504421Y-107202999D01*
X87227470Y-108926049D01*
X87255183Y-108959817D01*
X87288951Y-108987530D01*
X87288953Y-108987532D01*
X87326416Y-109018277D01*
X87389941Y-109070411D01*
X87543687Y-109152589D01*
X87710510Y-109203195D01*
X87840523Y-109216000D01*
X87840533Y-109216000D01*
X87883999Y-109220281D01*
X87927465Y-109216000D01*
X96280422Y-109216000D01*
X97536980Y-110472559D01*
X97536981Y-114963427D01*
X97532699Y-115006906D01*
X97549785Y-115180396D01*
X97600392Y-115347219D01*
X97682570Y-115500965D01*
X97765448Y-115601952D01*
X97765451Y-115601955D01*
X97793164Y-115635723D01*
X97826931Y-115663436D01*
X101293495Y-119130000D01*
X95692579Y-119130000D01*
X94961035Y-118398457D01*
X94949726Y-118341602D01*
X94871705Y-118153244D01*
X94758437Y-117983726D01*
X94614274Y-117839563D01*
X94444756Y-117726295D01*
X94256398Y-117648274D01*
X94056439Y-117608500D01*
X93852561Y-117608500D01*
X93652602Y-117648274D01*
X93464244Y-117726295D01*
X93294726Y-117839563D01*
X93150563Y-117983726D01*
X93037295Y-118153244D01*
X92959274Y-118341602D01*
X92919500Y-118541561D01*
X92919500Y-118745439D01*
X92959274Y-118945398D01*
X93037295Y-119133756D01*
X93150563Y-119303274D01*
X93294726Y-119447437D01*
X93464244Y-119560705D01*
X93652602Y-119638726D01*
X93709457Y-119650035D01*
X94669470Y-120610049D01*
X94697183Y-120643817D01*
X94730951Y-120671530D01*
X94730953Y-120671532D01*
X94831940Y-120754410D01*
X94831941Y-120754411D01*
X94985687Y-120836589D01*
X95152510Y-120887195D01*
X95282523Y-120900000D01*
X95282531Y-120900000D01*
X95326000Y-120904281D01*
X95369469Y-120900000D01*
X108287531Y-120900000D01*
X108331000Y-120904281D01*
X108374469Y-120900000D01*
X108374477Y-120900000D01*
X108504490Y-120887195D01*
X108671313Y-120836589D01*
X108825059Y-120754411D01*
X108959817Y-120643817D01*
X108987534Y-120610044D01*
X109815049Y-119782530D01*
X109848817Y-119754817D01*
X109876533Y-119721046D01*
X109959411Y-119620059D01*
X109987991Y-119566589D01*
X110041589Y-119466313D01*
X110092195Y-119299490D01*
X110105000Y-119169477D01*
X110105000Y-119169469D01*
X110109281Y-119126000D01*
X110105560Y-119088212D01*
X112865000Y-119088212D01*
X112865000Y-119311788D01*
X112908617Y-119531067D01*
X112994176Y-119737624D01*
X113118388Y-119923520D01*
X113276480Y-120081612D01*
X113462376Y-120205824D01*
X113668933Y-120291383D01*
X113888212Y-120335000D01*
X114111788Y-120335000D01*
X114331067Y-120291383D01*
X114537624Y-120205824D01*
X114723520Y-120081612D01*
X114881612Y-119923520D01*
X115005824Y-119737624D01*
X115091383Y-119531067D01*
X115135000Y-119311788D01*
X115135000Y-119088212D01*
X115091383Y-118868933D01*
X115005824Y-118662376D01*
X114881612Y-118476480D01*
X114723520Y-118318388D01*
X114537624Y-118194176D01*
X114331067Y-118108617D01*
X114111788Y-118065000D01*
X113888212Y-118065000D01*
X113668933Y-118108617D01*
X113462376Y-118194176D01*
X113276480Y-118318388D01*
X113118388Y-118476480D01*
X112994176Y-118662376D01*
X112908617Y-118868933D01*
X112865000Y-119088212D01*
X110105560Y-119088212D01*
X110105000Y-119082531D01*
X110105000Y-114688212D01*
X112865000Y-114688212D01*
X112865000Y-114911788D01*
X112908617Y-115131067D01*
X112994176Y-115337624D01*
X113118388Y-115523520D01*
X113276480Y-115681612D01*
X113462376Y-115805824D01*
X113668933Y-115891383D01*
X113888212Y-115935000D01*
X114111788Y-115935000D01*
X114331067Y-115891383D01*
X114537624Y-115805824D01*
X114723520Y-115681612D01*
X114881612Y-115523520D01*
X115005824Y-115337624D01*
X115091383Y-115131067D01*
X115135000Y-114911788D01*
X115135000Y-114688212D01*
X115091383Y-114468933D01*
X115005824Y-114262376D01*
X114881612Y-114076480D01*
X114723520Y-113918388D01*
X114537624Y-113794176D01*
X114331067Y-113708617D01*
X114111788Y-113665000D01*
X113888212Y-113665000D01*
X113668933Y-113708617D01*
X113462376Y-113794176D01*
X113276480Y-113918388D01*
X113118388Y-114076480D01*
X112994176Y-114262376D01*
X112908617Y-114468933D01*
X112865000Y-114688212D01*
X110105000Y-114688212D01*
X110105000Y-114528150D01*
X110109281Y-114484684D01*
X110105000Y-114441218D01*
X110105000Y-114441208D01*
X110092195Y-114311195D01*
X110041589Y-114144372D01*
X109959411Y-113990626D01*
X109954085Y-113984137D01*
X109961226Y-113966898D01*
X110001000Y-113766939D01*
X110001000Y-113563061D01*
X109978000Y-113447431D01*
X109978000Y-106837454D01*
X110010205Y-106789256D01*
X110088226Y-106600898D01*
X110128000Y-106400939D01*
X110128000Y-106197061D01*
X110088226Y-105997102D01*
X110010205Y-105808744D01*
X109896937Y-105639226D01*
X109752774Y-105495063D01*
X109583256Y-105381795D01*
X109394898Y-105303774D01*
X109194939Y-105264000D01*
X108991061Y-105264000D01*
X108791102Y-105303774D01*
X108602744Y-105381795D01*
X108433226Y-105495063D01*
X108289063Y-105639226D01*
X108175795Y-105808744D01*
X108097774Y-105997102D01*
X108058000Y-106197061D01*
X108058000Y-106400939D01*
X108097774Y-106600898D01*
X108175795Y-106789256D01*
X108208000Y-106837454D01*
X108208001Y-112959288D01*
X108162063Y-113005226D01*
X108048795Y-113174744D01*
X107970774Y-113363102D01*
X107931000Y-113563061D01*
X107931000Y-113766939D01*
X107970774Y-113966898D01*
X108048795Y-114155256D01*
X108079606Y-114201368D01*
X108076719Y-114230685D01*
X108081000Y-114274154D01*
X108081000Y-114274162D01*
X108093805Y-114404175D01*
X108144411Y-114570998D01*
X108207063Y-114688212D01*
X108226590Y-114724744D01*
X108309468Y-114825731D01*
X108309471Y-114825734D01*
X108335000Y-114856841D01*
X108335000Y-115979517D01*
X108134757Y-115979517D01*
X107934798Y-116019291D01*
X107746440Y-116097312D01*
X107698242Y-116129517D01*
X102776096Y-116129517D01*
X101240535Y-114593957D01*
X101240532Y-114593953D01*
X100707000Y-114060422D01*
X100707000Y-101516469D01*
X100711281Y-101473000D01*
X100707000Y-101429531D01*
X100707000Y-101429523D01*
X100694195Y-101299510D01*
X100643589Y-101132687D01*
X100561411Y-100978941D01*
X100450817Y-100844183D01*
X100417050Y-100816471D01*
X97496046Y-97895468D01*
X97365522Y-97764944D01*
X97337807Y-97731173D01*
X97203049Y-97620579D01*
X97049303Y-97538401D01*
X96882480Y-97487795D01*
X96752467Y-97474990D01*
X96752459Y-97474990D01*
X96708990Y-97470709D01*
X96665521Y-97474990D01*
X92710564Y-97474990D01*
X92734212Y-97417898D01*
X92773986Y-97217939D01*
X92773986Y-97014061D01*
X92734212Y-96814102D01*
X92656191Y-96625744D01*
X92542923Y-96456226D01*
X92398760Y-96312063D01*
X92229242Y-96198795D01*
X92089386Y-96140864D01*
X92054226Y-95964102D01*
X91976205Y-95775744D01*
X91862937Y-95606226D01*
X91718774Y-95462063D01*
X91549256Y-95348795D01*
X91360898Y-95270774D01*
X91160939Y-95231000D01*
X90957061Y-95231000D01*
X90757102Y-95270774D01*
X90568744Y-95348795D01*
X90521500Y-95380362D01*
X90521500Y-90479954D01*
X90553705Y-90431756D01*
X90631726Y-90243398D01*
X90671500Y-90043439D01*
X90671500Y-89839561D01*
X90631726Y-89639602D01*
X90586741Y-89531000D01*
X91258107Y-89531000D01*
X91462952Y-89735845D01*
X91460774Y-89741102D01*
X91421000Y-89941061D01*
X91421000Y-90144939D01*
X91460774Y-90344898D01*
X91538795Y-90533256D01*
X91652063Y-90702774D01*
X91796226Y-90846937D01*
X91965744Y-90960205D01*
X92154102Y-91038226D01*
X92354061Y-91078000D01*
X92557939Y-91078000D01*
X92757898Y-91038226D01*
X92946256Y-90960205D01*
X92994454Y-90928000D01*
X107456422Y-90928000D01*
X108843000Y-92314579D01*
X108843001Y-94711544D01*
X108810795Y-94759744D01*
X108732774Y-94948102D01*
X108693000Y-95148061D01*
X108693000Y-95351939D01*
X108732774Y-95551898D01*
X108810795Y-95740256D01*
X108924063Y-95909774D01*
X109068226Y-96053937D01*
X109237744Y-96167205D01*
X109426102Y-96245226D01*
X109626061Y-96285000D01*
X109829939Y-96285000D01*
X110029898Y-96245226D01*
X110218256Y-96167205D01*
X110387774Y-96053937D01*
X110531937Y-95909774D01*
X110645205Y-95740256D01*
X110723226Y-95551898D01*
X110763000Y-95351939D01*
X110763000Y-95148061D01*
X110723226Y-94948102D01*
X110645205Y-94759744D01*
X110613000Y-94711546D01*
X110613000Y-91991469D01*
X110617281Y-91948000D01*
X110613000Y-91904531D01*
X110613000Y-91904523D01*
X110600195Y-91774510D01*
X110549589Y-91607687D01*
X110467411Y-91453941D01*
X110356817Y-91319183D01*
X110323050Y-91291471D01*
X108479534Y-89447956D01*
X108451817Y-89414183D01*
X108317059Y-89303589D01*
X108163313Y-89221411D01*
X107996490Y-89170805D01*
X107866477Y-89158000D01*
X107866469Y-89158000D01*
X107823000Y-89153719D01*
X107779531Y-89158000D01*
X93283959Y-89158000D01*
X93277589Y-89137002D01*
X93195411Y-88983256D01*
X93159874Y-88939954D01*
X93112532Y-88882268D01*
X93112530Y-88882266D01*
X93084817Y-88848498D01*
X93051049Y-88820785D01*
X92281219Y-88050956D01*
X92253502Y-88017183D01*
X92118744Y-87906589D01*
X91964998Y-87824411D01*
X91798175Y-87773805D01*
X91668162Y-87761000D01*
X91668154Y-87761000D01*
X91624685Y-87756719D01*
X91581216Y-87761000D01*
X90868314Y-87761000D01*
X90918059Y-87734411D01*
X91052817Y-87623817D01*
X91080534Y-87590044D01*
X92189165Y-86481413D01*
X109419192Y-86481413D01*
X109514956Y-86745814D01*
X109804571Y-86886704D01*
X110116108Y-86968384D01*
X110437595Y-86987718D01*
X110756675Y-86943961D01*
X111061088Y-86838795D01*
X111235044Y-86745814D01*
X111330808Y-86481413D01*
X110375000Y-85525605D01*
X109419192Y-86481413D01*
X92189165Y-86481413D01*
X93245049Y-85425530D01*
X93265684Y-85408595D01*
X108733282Y-85408595D01*
X108777039Y-85727675D01*
X108882205Y-86032088D01*
X108975186Y-86206044D01*
X109239587Y-86301808D01*
X110195395Y-85346000D01*
X110554605Y-85346000D01*
X111510413Y-86301808D01*
X111774814Y-86206044D01*
X111915704Y-85916429D01*
X111997384Y-85604892D01*
X112016718Y-85283405D01*
X111972961Y-84964325D01*
X111867795Y-84659912D01*
X111774814Y-84485956D01*
X111510413Y-84390192D01*
X110554605Y-85346000D01*
X110195395Y-85346000D01*
X109239587Y-84390192D01*
X108975186Y-84485956D01*
X108834296Y-84775571D01*
X108752616Y-85087108D01*
X108733282Y-85408595D01*
X93265684Y-85408595D01*
X93278817Y-85397817D01*
X93321343Y-85346000D01*
X93389410Y-85263060D01*
X93471588Y-85109314D01*
X93471589Y-85109313D01*
X93522195Y-84942490D01*
X93535000Y-84812477D01*
X93535000Y-84812467D01*
X93539281Y-84769001D01*
X93535000Y-84725535D01*
X93535000Y-84210587D01*
X109419192Y-84210587D01*
X110375000Y-85166395D01*
X111330808Y-84210587D01*
X111235044Y-83946186D01*
X110945429Y-83805296D01*
X110633892Y-83723616D01*
X110312405Y-83704282D01*
X109993325Y-83748039D01*
X109688912Y-83853205D01*
X109514956Y-83946186D01*
X109419192Y-84210587D01*
X93535000Y-84210587D01*
X93535000Y-72484967D01*
X108740000Y-72484967D01*
X108740000Y-72807033D01*
X108802832Y-73122912D01*
X108926082Y-73420463D01*
X109105013Y-73688252D01*
X109332748Y-73915987D01*
X109600537Y-74094918D01*
X109898088Y-74218168D01*
X110213967Y-74281000D01*
X110536033Y-74281000D01*
X110851912Y-74218168D01*
X111149463Y-74094918D01*
X111417252Y-73915987D01*
X111644987Y-73688252D01*
X111823918Y-73420463D01*
X111947168Y-73122912D01*
X112010000Y-72807033D01*
X112010000Y-72484967D01*
X111947168Y-72169088D01*
X111823918Y-71871537D01*
X111644987Y-71603748D01*
X111417252Y-71376013D01*
X111149463Y-71197082D01*
X110851912Y-71073832D01*
X110536033Y-71011000D01*
X110213967Y-71011000D01*
X109898088Y-71073832D01*
X109600537Y-71197082D01*
X109332748Y-71376013D01*
X109105013Y-71603748D01*
X108926082Y-71871537D01*
X108802832Y-72169088D01*
X108740000Y-72484967D01*
X93535000Y-72484967D01*
X93535000Y-69388818D01*
X93540535Y-69385120D01*
X93735120Y-69190535D01*
X93888005Y-68961727D01*
X93920000Y-68884485D01*
X93951995Y-68961727D01*
X94104880Y-69190535D01*
X94299465Y-69385120D01*
X94528273Y-69538005D01*
X94782510Y-69643314D01*
X95052408Y-69697000D01*
X95327592Y-69697000D01*
X95597490Y-69643314D01*
X95851727Y-69538005D01*
X96080535Y-69385120D01*
X96275120Y-69190535D01*
X96428005Y-68961727D01*
X96460000Y-68884485D01*
X96491995Y-68961727D01*
X96644880Y-69190535D01*
X96839465Y-69385120D01*
X97068273Y-69538005D01*
X97322510Y-69643314D01*
X97592408Y-69697000D01*
X97867592Y-69697000D01*
X98137490Y-69643314D01*
X98391727Y-69538005D01*
X98620535Y-69385120D01*
X98815120Y-69190535D01*
X98968005Y-68961727D01*
X99000000Y-68884485D01*
X99031995Y-68961727D01*
X99184880Y-69190535D01*
X99379465Y-69385120D01*
X99608273Y-69538005D01*
X99862510Y-69643314D01*
X100132408Y-69697000D01*
X100407592Y-69697000D01*
X100677490Y-69643314D01*
X100931727Y-69538005D01*
X101160535Y-69385120D01*
X101355120Y-69190535D01*
X101508005Y-68961727D01*
X101540000Y-68884485D01*
X101571995Y-68961727D01*
X101724880Y-69190535D01*
X101919465Y-69385120D01*
X102148273Y-69538005D01*
X102402510Y-69643314D01*
X102672408Y-69697000D01*
X102947592Y-69697000D01*
X103217490Y-69643314D01*
X103471727Y-69538005D01*
X103700535Y-69385120D01*
X103895120Y-69190535D01*
X104048005Y-68961727D01*
X104080000Y-68884485D01*
X104111995Y-68961727D01*
X104264880Y-69190535D01*
X104459465Y-69385120D01*
X104688273Y-69538005D01*
X104942510Y-69643314D01*
X105212408Y-69697000D01*
X105487592Y-69697000D01*
X105757490Y-69643314D01*
X106011727Y-69538005D01*
X106240535Y-69385120D01*
X106435120Y-69190535D01*
X106588005Y-68961727D01*
X106620000Y-68884485D01*
X106651995Y-68961727D01*
X106804880Y-69190535D01*
X106999465Y-69385120D01*
X107228273Y-69538005D01*
X107482510Y-69643314D01*
X107752408Y-69697000D01*
X108027592Y-69697000D01*
X108297490Y-69643314D01*
X108551727Y-69538005D01*
X108780535Y-69385120D01*
X108975120Y-69190535D01*
X109128005Y-68961727D01*
X109160000Y-68884485D01*
X109191995Y-68961727D01*
X109344880Y-69190535D01*
X109539465Y-69385120D01*
X109768273Y-69538005D01*
X110022510Y-69643314D01*
X110292408Y-69697000D01*
X110567592Y-69697000D01*
X110837490Y-69643314D01*
X111091727Y-69538005D01*
X111320535Y-69385120D01*
X111515120Y-69190535D01*
X111668005Y-68961727D01*
X111773314Y-68707490D01*
X111827000Y-68437592D01*
X111827000Y-68162408D01*
X111773314Y-67892510D01*
X111668005Y-67638273D01*
X111515120Y-67409465D01*
X111320535Y-67214880D01*
X111091727Y-67061995D01*
X110837490Y-66956686D01*
X110567592Y-66903000D01*
X110292408Y-66903000D01*
X110022510Y-66956686D01*
X109768273Y-67061995D01*
X109539465Y-67214880D01*
X109344880Y-67409465D01*
X109191995Y-67638273D01*
X109160000Y-67715515D01*
X109128005Y-67638273D01*
X108975120Y-67409465D01*
X108780535Y-67214880D01*
X108551727Y-67061995D01*
X108297490Y-66956686D01*
X108027592Y-66903000D01*
X107752408Y-66903000D01*
X107482510Y-66956686D01*
X107228273Y-67061995D01*
X106999465Y-67214880D01*
X106804880Y-67409465D01*
X106651995Y-67638273D01*
X106620000Y-67715515D01*
X106588005Y-67638273D01*
X106435120Y-67409465D01*
X106240535Y-67214880D01*
X106011727Y-67061995D01*
X105757490Y-66956686D01*
X105487592Y-66903000D01*
X105212408Y-66903000D01*
X104942510Y-66956686D01*
X104688273Y-67061995D01*
X104459465Y-67214880D01*
X104264880Y-67409465D01*
X104111995Y-67638273D01*
X104080000Y-67715515D01*
X104048005Y-67638273D01*
X103895120Y-67409465D01*
X103700535Y-67214880D01*
X103471727Y-67061995D01*
X103217490Y-66956686D01*
X102947592Y-66903000D01*
X102672408Y-66903000D01*
X102402510Y-66956686D01*
X102148273Y-67061995D01*
X101919465Y-67214880D01*
X101724880Y-67409465D01*
X101571995Y-67638273D01*
X101540000Y-67715515D01*
X101508005Y-67638273D01*
X101355120Y-67409465D01*
X101160535Y-67214880D01*
X100931727Y-67061995D01*
X100677490Y-66956686D01*
X100407592Y-66903000D01*
X100132408Y-66903000D01*
X99862510Y-66956686D01*
X99608273Y-67061995D01*
X99379465Y-67214880D01*
X99184880Y-67409465D01*
X99031995Y-67638273D01*
X99000000Y-67715515D01*
X98968005Y-67638273D01*
X98815120Y-67409465D01*
X98620535Y-67214880D01*
X98391727Y-67061995D01*
X98137490Y-66956686D01*
X97867592Y-66903000D01*
X97592408Y-66903000D01*
X97322510Y-66956686D01*
X97068273Y-67061995D01*
X96839465Y-67214880D01*
X96644880Y-67409465D01*
X96491995Y-67638273D01*
X96460000Y-67715515D01*
X96428005Y-67638273D01*
X96275120Y-67409465D01*
X96080535Y-67214880D01*
X95851727Y-67061995D01*
X95597490Y-66956686D01*
X95327592Y-66903000D01*
X95052408Y-66903000D01*
X94782510Y-66956686D01*
X94528273Y-67061995D01*
X94299465Y-67214880D01*
X94104880Y-67409465D01*
X93951995Y-67638273D01*
X93920000Y-67715515D01*
X93888005Y-67638273D01*
X93735120Y-67409465D01*
X93540535Y-67214880D01*
X93311727Y-67061995D01*
X93057490Y-66956686D01*
X92787592Y-66903000D01*
X92512408Y-66903000D01*
X92242510Y-66956686D01*
X91988273Y-67061995D01*
X91759465Y-67214880D01*
X91564880Y-67409465D01*
X91411995Y-67638273D01*
X91380000Y-67715515D01*
X91348005Y-67638273D01*
X91195120Y-67409465D01*
X91000535Y-67214880D01*
X90771727Y-67061995D01*
X90517490Y-66956686D01*
X90247592Y-66903000D01*
X89972408Y-66903000D01*
X89702510Y-66956686D01*
X89448273Y-67061995D01*
X89219465Y-67214880D01*
X89024880Y-67409465D01*
X88871995Y-67638273D01*
X88842308Y-67709943D01*
X88837636Y-67696977D01*
X88775656Y-67581020D01*
X88535565Y-67514040D01*
X87749605Y-68300000D01*
X88535565Y-69085960D01*
X88775656Y-69018980D01*
X88839485Y-68883240D01*
X88871995Y-68961727D01*
X89024880Y-69190535D01*
X89219465Y-69385120D01*
X89448273Y-69538005D01*
X89702510Y-69643314D01*
X89972408Y-69697000D01*
X90247592Y-69697000D01*
X90517490Y-69643314D01*
X90771727Y-69538005D01*
X91000535Y-69385120D01*
X91195120Y-69190535D01*
X91348005Y-68961727D01*
X91380000Y-68884485D01*
X91411995Y-68961727D01*
X91564880Y-69190535D01*
X91759465Y-69385120D01*
X91765000Y-69388818D01*
X91765001Y-84402420D01*
X90057422Y-86110000D01*
X85387469Y-86110000D01*
X85344000Y-86105719D01*
X85300531Y-86110000D01*
X85300523Y-86110000D01*
X85185306Y-86121348D01*
X85170509Y-86122805D01*
X85129340Y-86135294D01*
X85003687Y-86173411D01*
X84849941Y-86255589D01*
X84849939Y-86255590D01*
X84849940Y-86255590D01*
X84748953Y-86338468D01*
X84748951Y-86338470D01*
X84715183Y-86366183D01*
X84687470Y-86399951D01*
X82716956Y-88370466D01*
X82683183Y-88398183D01*
X82572589Y-88532942D01*
X82490411Y-88686688D01*
X82482305Y-88713411D01*
X82441326Y-88848498D01*
X82439805Y-88853511D01*
X82427000Y-88983524D01*
X82427000Y-88983531D01*
X82422719Y-89027000D01*
X82427000Y-89070469D01*
X82427001Y-93710740D01*
X82259503Y-93878238D01*
X82111215Y-94100167D01*
X82009072Y-94346761D01*
X81957000Y-94608544D01*
X81957000Y-94802422D01*
X81657000Y-94502422D01*
X81657000Y-93233259D01*
X81824497Y-93065762D01*
X81972785Y-92843833D01*
X82074928Y-92597239D01*
X82127000Y-92335456D01*
X82127000Y-92068544D01*
X82074928Y-91806761D01*
X81972785Y-91560167D01*
X81824497Y-91338238D01*
X81635762Y-91149503D01*
X81413833Y-91001215D01*
X81167239Y-90899072D01*
X80905456Y-90847000D01*
X80638544Y-90847000D01*
X80376761Y-90899072D01*
X80130167Y-91001215D01*
X79908238Y-91149503D01*
X79719503Y-91338238D01*
X79571215Y-91560167D01*
X79469072Y-91806761D01*
X79417000Y-92068544D01*
X79417000Y-92335456D01*
X79469072Y-92597239D01*
X79571215Y-92843833D01*
X79719503Y-93065762D01*
X79887001Y-93233260D01*
X79887000Y-94825531D01*
X79882719Y-94869000D01*
X79887000Y-94912469D01*
X79887000Y-94912476D01*
X79899805Y-95042489D01*
X79950411Y-95209312D01*
X80032589Y-95363058D01*
X80143183Y-95497817D01*
X80176956Y-95525534D01*
X80590423Y-95939002D01*
X80434499Y-95962937D01*
X80183647Y-96054125D01*
X80077932Y-96110632D01*
X80016045Y-96346440D01*
X80772000Y-97102395D01*
X80786143Y-97088253D01*
X80965748Y-97267858D01*
X80951605Y-97282000D01*
X81707560Y-98037955D01*
X81943368Y-97976068D01*
X82056266Y-97734210D01*
X82119811Y-97474973D01*
X82120380Y-97462068D01*
X82136125Y-97474990D01*
X82182941Y-97513411D01*
X82336687Y-97595589D01*
X82503510Y-97646195D01*
X82633523Y-97659000D01*
X82633531Y-97659000D01*
X82677000Y-97663281D01*
X82720469Y-97659000D01*
X84919531Y-97659000D01*
X84963000Y-97663281D01*
X85006469Y-97659000D01*
X85006477Y-97659000D01*
X85136490Y-97646195D01*
X85303313Y-97595589D01*
X85457059Y-97513411D01*
X85591817Y-97402817D01*
X85619534Y-97369044D01*
X86701049Y-96287530D01*
X86734817Y-96259817D01*
X86774731Y-96211183D01*
X86821210Y-96154548D01*
X86845411Y-96125059D01*
X86927589Y-95971313D01*
X86978195Y-95804490D01*
X86991000Y-95674477D01*
X86991000Y-95674467D01*
X86995281Y-95631001D01*
X86991000Y-95587535D01*
X86991000Y-89901578D01*
X87361579Y-89531000D01*
X88686259Y-89531000D01*
X88641274Y-89639602D01*
X88601500Y-89839561D01*
X88601500Y-90043439D01*
X88641274Y-90243398D01*
X88719295Y-90431756D01*
X88751501Y-90479956D01*
X88751500Y-96432921D01*
X86368957Y-98815465D01*
X86312102Y-98826774D01*
X86123744Y-98904795D01*
X85954226Y-99018063D01*
X85810063Y-99162226D01*
X85696795Y-99331744D01*
X85618774Y-99520102D01*
X85579000Y-99720061D01*
X85579000Y-99923939D01*
X85618774Y-100123898D01*
X85696795Y-100312256D01*
X85810063Y-100481774D01*
X85954226Y-100625937D01*
X86123744Y-100739205D01*
X86312102Y-100817226D01*
X86512061Y-100857000D01*
X86715939Y-100857000D01*
X86915898Y-100817226D01*
X87104256Y-100739205D01*
X87273774Y-100625937D01*
X87417937Y-100481774D01*
X87531205Y-100312256D01*
X87609226Y-100123898D01*
X87620535Y-100067043D01*
X89666000Y-98021579D01*
X89666000Y-98439216D01*
X89661719Y-98482685D01*
X89666000Y-98526154D01*
X89666000Y-98526161D01*
X89678805Y-98656174D01*
X89729411Y-98822997D01*
X89811589Y-98976743D01*
X89922183Y-99111502D01*
X89955956Y-99139219D01*
X90471781Y-99655044D01*
X90499498Y-99688817D01*
X90634256Y-99799411D01*
X90788002Y-99881589D01*
X90954825Y-99932195D01*
X91084838Y-99945000D01*
X91084846Y-99945000D01*
X91128315Y-99949281D01*
X91171784Y-99945000D01*
X96052460Y-99945000D01*
X98236991Y-102129532D01*
X98236990Y-108669412D01*
X97303534Y-107735956D01*
X97275817Y-107702183D01*
X97141059Y-107591589D01*
X96987313Y-107509411D01*
X96820490Y-107458805D01*
X96690477Y-107446000D01*
X96690469Y-107446000D01*
X96647000Y-107441719D01*
X96603531Y-107446000D01*
X88250579Y-107446000D01*
X86527531Y-105722953D01*
X86499816Y-105689182D01*
X86365058Y-105578588D01*
X86260998Y-105522967D01*
X90567000Y-105522967D01*
X90567000Y-105845033D01*
X90629832Y-106160912D01*
X90753082Y-106458463D01*
X90932013Y-106726252D01*
X91159748Y-106953987D01*
X91427537Y-107132918D01*
X91725088Y-107256168D01*
X92040967Y-107319000D01*
X92363033Y-107319000D01*
X92678912Y-107256168D01*
X92976463Y-107132918D01*
X93244252Y-106953987D01*
X93471987Y-106726252D01*
X93650918Y-106458463D01*
X93774168Y-106160912D01*
X93837000Y-105845033D01*
X93837000Y-105522967D01*
X93774168Y-105207088D01*
X93650918Y-104909537D01*
X93471987Y-104641748D01*
X93244252Y-104414013D01*
X92976463Y-104235082D01*
X92678912Y-104111832D01*
X92363033Y-104049000D01*
X92040967Y-104049000D01*
X91725088Y-104111832D01*
X91427537Y-104235082D01*
X91159748Y-104414013D01*
X90932013Y-104641748D01*
X90753082Y-104909537D01*
X90629832Y-105207088D01*
X90567000Y-105522967D01*
X86260998Y-105522967D01*
X86211312Y-105496410D01*
X86044489Y-105445804D01*
X85914476Y-105432999D01*
X85914468Y-105432999D01*
X85870999Y-105428718D01*
X85827530Y-105432999D01*
X82029488Y-105432999D01*
X82066266Y-105354210D01*
X82129811Y-105094973D01*
X82141561Y-104828320D01*
X82101063Y-104564499D01*
X82009875Y-104313647D01*
X81953368Y-104207932D01*
X81717560Y-104146045D01*
X80961605Y-104902000D01*
X80975748Y-104916143D01*
X80796143Y-105095748D01*
X80782000Y-105081605D01*
X80767858Y-105095748D01*
X80588253Y-104916143D01*
X80602395Y-104902000D01*
X79846440Y-104146045D01*
X79610632Y-104207932D01*
X79497734Y-104449790D01*
X79434189Y-104709027D01*
X79422439Y-104975680D01*
X79462937Y-105239501D01*
X79533276Y-105432999D01*
X79024382Y-105432999D01*
X79022205Y-105427744D01*
X78990000Y-105379546D01*
X78990000Y-103966440D01*
X80026045Y-103966440D01*
X80782000Y-104722395D01*
X81537955Y-103966440D01*
X81476068Y-103730632D01*
X81234210Y-103617734D01*
X80974973Y-103554189D01*
X80708320Y-103542439D01*
X80444499Y-103582937D01*
X80193647Y-103674125D01*
X80087932Y-103730632D01*
X80026045Y-103966440D01*
X78990000Y-103966440D01*
X78990000Y-102228544D01*
X81967000Y-102228544D01*
X81967000Y-102495456D01*
X82019072Y-102757239D01*
X82121215Y-103003833D01*
X82269503Y-103225762D01*
X82458238Y-103414497D01*
X82680167Y-103562785D01*
X82926761Y-103664928D01*
X83188544Y-103717000D01*
X83455456Y-103717000D01*
X83717239Y-103664928D01*
X83963833Y-103562785D01*
X84185762Y-103414497D01*
X84374497Y-103225762D01*
X84522785Y-103003833D01*
X84624928Y-102757239D01*
X84677000Y-102495456D01*
X84677000Y-102228544D01*
X84624928Y-101966761D01*
X84522785Y-101720167D01*
X84374497Y-101498238D01*
X84185762Y-101309503D01*
X83963833Y-101161215D01*
X83717239Y-101059072D01*
X83455456Y-101007000D01*
X83188544Y-101007000D01*
X82926761Y-101059072D01*
X82680167Y-101161215D01*
X82458238Y-101309503D01*
X82269503Y-101498238D01*
X82121215Y-101720167D01*
X82019072Y-101966761D01*
X81967000Y-102228544D01*
X78990000Y-102228544D01*
X78990000Y-99688544D01*
X79427000Y-99688544D01*
X79427000Y-99955456D01*
X79479072Y-100217239D01*
X79581215Y-100463833D01*
X79729503Y-100685762D01*
X79918238Y-100874497D01*
X80140167Y-101022785D01*
X80386761Y-101124928D01*
X80648544Y-101177000D01*
X80915456Y-101177000D01*
X81177239Y-101124928D01*
X81423833Y-101022785D01*
X81645762Y-100874497D01*
X81834497Y-100685762D01*
X81982785Y-100463833D01*
X82084928Y-100217239D01*
X82137000Y-99955456D01*
X82137000Y-99688544D01*
X82084928Y-99426761D01*
X81982785Y-99180167D01*
X81834497Y-98958238D01*
X81645762Y-98769503D01*
X81423833Y-98621215D01*
X81251002Y-98549626D01*
X81360353Y-98509875D01*
X81466068Y-98453368D01*
X81527955Y-98217560D01*
X80772000Y-97461605D01*
X80016045Y-98217560D01*
X80077932Y-98453368D01*
X80297709Y-98555959D01*
X80140167Y-98621215D01*
X79918238Y-98769503D01*
X79729503Y-98958238D01*
X79581215Y-99180167D01*
X79479072Y-99426761D01*
X79427000Y-99688544D01*
X78990000Y-99688544D01*
X78990000Y-98341465D01*
X78994281Y-98297999D01*
X78990000Y-98254533D01*
X78990000Y-98254523D01*
X78977195Y-98124510D01*
X78926589Y-97957687D01*
X78844411Y-97803941D01*
X78787184Y-97734210D01*
X78761532Y-97702953D01*
X78761530Y-97702951D01*
X78733817Y-97669183D01*
X78700049Y-97641470D01*
X78414259Y-97355680D01*
X79412439Y-97355680D01*
X79452937Y-97619501D01*
X79544125Y-97870353D01*
X79600632Y-97976068D01*
X79836440Y-98037955D01*
X80592395Y-97282000D01*
X79836440Y-96526045D01*
X79600632Y-96587932D01*
X79487734Y-96829790D01*
X79424189Y-97089027D01*
X79412439Y-97355680D01*
X78414259Y-97355680D01*
X77303534Y-96244956D01*
X77275817Y-96211183D01*
X77141059Y-96100589D01*
X76987313Y-96018411D01*
X76820490Y-95967805D01*
X76690477Y-95955000D01*
X76690469Y-95955000D01*
X76647000Y-95950719D01*
X76603531Y-95955000D01*
X72302328Y-95955000D01*
X72250012Y-95828698D01*
X72016363Y-95479017D01*
X71718983Y-95181637D01*
X71369302Y-94947988D01*
X70980756Y-94787047D01*
X70568279Y-94705000D01*
X70147721Y-94705000D01*
X69735244Y-94787047D01*
X69346698Y-94947988D01*
X68997017Y-95181637D01*
X68699637Y-95479017D01*
X68465988Y-95828698D01*
X68305047Y-96217244D01*
X68223000Y-96629721D01*
X64897000Y-96629721D01*
X64897000Y-95045401D01*
X67619868Y-92075000D01*
X72644000Y-92075000D01*
X72668776Y-92072560D01*
X72692601Y-92065333D01*
X72714557Y-92053597D01*
X72733803Y-92037803D01*
X72749597Y-92018557D01*
X72761333Y-91996601D01*
X72768560Y-91972776D01*
X72771000Y-91948000D01*
X72771000Y-87376000D01*
X73564815Y-87376000D01*
X73593487Y-87667111D01*
X73678401Y-87947034D01*
X73816294Y-88205014D01*
X74001866Y-88431134D01*
X74227986Y-88616706D01*
X74485966Y-88754599D01*
X74765889Y-88839513D01*
X74984050Y-88861000D01*
X75129950Y-88861000D01*
X75348111Y-88839513D01*
X75628034Y-88754599D01*
X75886014Y-88616706D01*
X76112134Y-88431134D01*
X76297706Y-88205014D01*
X76435599Y-87947034D01*
X76520513Y-87667111D01*
X76549185Y-87376000D01*
X76520513Y-87084889D01*
X76435599Y-86804966D01*
X76297706Y-86546986D01*
X76112134Y-86320866D01*
X76082313Y-86296393D01*
X76151180Y-86275502D01*
X76261494Y-86216537D01*
X76358185Y-86137185D01*
X76437537Y-86040494D01*
X76496502Y-85930180D01*
X76532812Y-85810482D01*
X76541625Y-85721000D01*
X85681531Y-85721000D01*
X85725000Y-85725281D01*
X85768469Y-85721000D01*
X85768477Y-85721000D01*
X85898490Y-85708195D01*
X86065313Y-85657589D01*
X86219059Y-85575411D01*
X86353817Y-85464817D01*
X86381534Y-85431044D01*
X86997050Y-84815529D01*
X87030817Y-84787817D01*
X87141411Y-84653059D01*
X87172171Y-84595511D01*
X87223589Y-84499314D01*
X87274195Y-84332490D01*
X87286201Y-84210587D01*
X87287000Y-84202477D01*
X87287000Y-84202469D01*
X87291281Y-84159000D01*
X87287000Y-84115531D01*
X87287000Y-82366454D01*
X87319205Y-82318256D01*
X87397226Y-82129898D01*
X87437000Y-81929939D01*
X87437000Y-81726061D01*
X87397226Y-81526102D01*
X87319205Y-81337744D01*
X87205937Y-81168226D01*
X87061774Y-81024063D01*
X86892256Y-80910795D01*
X86703898Y-80832774D01*
X86503939Y-80793000D01*
X86300061Y-80793000D01*
X86100102Y-80832774D01*
X85911744Y-80910795D01*
X85742226Y-81024063D01*
X85598063Y-81168226D01*
X85484795Y-81337744D01*
X85406774Y-81526102D01*
X85367000Y-81726061D01*
X85367000Y-81929939D01*
X85406774Y-82129898D01*
X85484795Y-82318256D01*
X85517001Y-82366455D01*
X85517000Y-83792421D01*
X85358422Y-83951000D01*
X76541625Y-83951000D01*
X76532812Y-83861518D01*
X76496502Y-83741820D01*
X76437537Y-83631506D01*
X76358185Y-83534815D01*
X76261494Y-83455463D01*
X76151180Y-83396498D01*
X76031482Y-83360188D01*
X75907000Y-83347928D01*
X74207000Y-83347928D01*
X74082518Y-83360188D01*
X73962820Y-83396498D01*
X73852506Y-83455463D01*
X73755815Y-83534815D01*
X73676463Y-83631506D01*
X73617498Y-83741820D01*
X73581188Y-83861518D01*
X73568928Y-83986000D01*
X73568928Y-85686000D01*
X73581188Y-85810482D01*
X73617498Y-85930180D01*
X73676463Y-86040494D01*
X73755815Y-86137185D01*
X73852506Y-86216537D01*
X73962820Y-86275502D01*
X74031687Y-86296393D01*
X74001866Y-86320866D01*
X73816294Y-86546986D01*
X73678401Y-86804966D01*
X73593487Y-87084889D01*
X73564815Y-87376000D01*
X72771000Y-87376000D01*
X72771000Y-75692000D01*
X73564815Y-75692000D01*
X73593487Y-75983111D01*
X73678401Y-76263034D01*
X73816294Y-76521014D01*
X74001866Y-76747134D01*
X74227986Y-76932706D01*
X74485966Y-77070599D01*
X74765889Y-77155513D01*
X74984050Y-77177000D01*
X75129950Y-77177000D01*
X75348111Y-77155513D01*
X75628034Y-77070599D01*
X75886014Y-76932706D01*
X76112134Y-76747134D01*
X76297706Y-76521014D01*
X76435599Y-76263034D01*
X76520513Y-75983111D01*
X76549185Y-75692000D01*
X76520513Y-75400889D01*
X76435599Y-75120966D01*
X76297706Y-74862986D01*
X76112134Y-74636866D01*
X76082313Y-74612393D01*
X76151180Y-74591502D01*
X76261494Y-74532537D01*
X76358185Y-74453185D01*
X76437537Y-74356494D01*
X76496502Y-74246180D01*
X76532812Y-74126482D01*
X76541625Y-74037000D01*
X80995546Y-74037000D01*
X81043744Y-74069205D01*
X81232102Y-74147226D01*
X81432061Y-74187000D01*
X81635939Y-74187000D01*
X81835898Y-74147226D01*
X82024256Y-74069205D01*
X82193774Y-73955937D01*
X82337937Y-73811774D01*
X82451205Y-73642256D01*
X82529226Y-73453898D01*
X82569000Y-73253939D01*
X82569000Y-73050061D01*
X82529226Y-72850102D01*
X82451205Y-72661744D01*
X82337937Y-72492226D01*
X82193774Y-72348063D01*
X82024256Y-72234795D01*
X81835898Y-72156774D01*
X81635939Y-72117000D01*
X81432061Y-72117000D01*
X81232102Y-72156774D01*
X81043744Y-72234795D01*
X80995546Y-72267000D01*
X76541625Y-72267000D01*
X76532812Y-72177518D01*
X76496502Y-72057820D01*
X76437537Y-71947506D01*
X76358185Y-71850815D01*
X76261494Y-71771463D01*
X76151180Y-71712498D01*
X76031482Y-71676188D01*
X75907000Y-71663928D01*
X74207000Y-71663928D01*
X74082518Y-71676188D01*
X73962820Y-71712498D01*
X73852506Y-71771463D01*
X73755815Y-71850815D01*
X73676463Y-71947506D01*
X73617498Y-72057820D01*
X73581188Y-72177518D01*
X73568928Y-72302000D01*
X73568928Y-74002000D01*
X73581188Y-74126482D01*
X73617498Y-74246180D01*
X73676463Y-74356494D01*
X73755815Y-74453185D01*
X73852506Y-74532537D01*
X73962820Y-74591502D01*
X74031687Y-74612393D01*
X74001866Y-74636866D01*
X73816294Y-74862986D01*
X73678401Y-75120966D01*
X73593487Y-75400889D01*
X73564815Y-75692000D01*
X72771000Y-75692000D01*
X72771000Y-69265565D01*
X86784040Y-69265565D01*
X86851020Y-69505656D01*
X87100048Y-69622756D01*
X87367135Y-69689023D01*
X87642017Y-69701910D01*
X87914133Y-69660922D01*
X88173023Y-69567636D01*
X88288980Y-69505656D01*
X88355960Y-69265565D01*
X87570000Y-68479605D01*
X86784040Y-69265565D01*
X72771000Y-69265565D01*
X72771000Y-66061098D01*
X81570000Y-66061098D01*
X81570000Y-66530902D01*
X81661654Y-66991679D01*
X81841440Y-67425721D01*
X82102450Y-67816349D01*
X82434651Y-68148550D01*
X82825279Y-68409560D01*
X83259321Y-68589346D01*
X83720098Y-68681000D01*
X84189902Y-68681000D01*
X84650679Y-68589346D01*
X85084721Y-68409560D01*
X85140907Y-68372017D01*
X86168090Y-68372017D01*
X86209078Y-68644133D01*
X86302364Y-68903023D01*
X86364344Y-69018980D01*
X86604435Y-69085960D01*
X87390395Y-68300000D01*
X86604435Y-67514040D01*
X86364344Y-67581020D01*
X86247244Y-67830048D01*
X86180977Y-68097135D01*
X86168090Y-68372017D01*
X85140907Y-68372017D01*
X85475349Y-68148550D01*
X85807550Y-67816349D01*
X86068560Y-67425721D01*
X86106371Y-67334435D01*
X86784040Y-67334435D01*
X87570000Y-68120395D01*
X88355960Y-67334435D01*
X88288980Y-67094344D01*
X88039952Y-66977244D01*
X87772865Y-66910977D01*
X87497983Y-66898090D01*
X87225867Y-66939078D01*
X86966977Y-67032364D01*
X86851020Y-67094344D01*
X86784040Y-67334435D01*
X86106371Y-67334435D01*
X86248346Y-66991679D01*
X86340000Y-66530902D01*
X86340000Y-66061098D01*
X86248346Y-65600321D01*
X86068560Y-65166279D01*
X85807550Y-64775651D01*
X85475349Y-64443450D01*
X85084721Y-64182440D01*
X84650679Y-64002654D01*
X84189902Y-63911000D01*
X83720098Y-63911000D01*
X83259321Y-64002654D01*
X82825279Y-64182440D01*
X82434651Y-64443450D01*
X82102450Y-64775651D01*
X81841440Y-65166279D01*
X81661654Y-65600321D01*
X81570000Y-66061098D01*
X72771000Y-66061098D01*
X72771000Y-61660000D01*
X118340000Y-61660000D01*
X118340001Y-103377844D01*
X118340001Y-103377844D01*
G37*
X118340001Y-103377844D02*
X118201652Y-103320539D01*
X117972712Y-103275000D01*
X117739288Y-103275000D01*
X117510348Y-103320539D01*
X117294692Y-103409866D01*
X117100606Y-103539550D01*
X116935550Y-103704606D01*
X116906445Y-103748165D01*
X116903336Y-103739034D01*
X116797338Y-103540726D01*
X116522712Y-103432893D01*
X115495605Y-104460000D01*
X115509748Y-104474143D01*
X115330143Y-104653748D01*
X115316000Y-104639605D01*
X115301858Y-104653748D01*
X115122253Y-104474143D01*
X115136395Y-104460000D01*
X114109288Y-103432893D01*
X113834662Y-103540726D01*
X113683784Y-103847384D01*
X113595631Y-104177585D01*
X113573591Y-104518639D01*
X113618511Y-104857439D01*
X113728664Y-105180966D01*
X113834662Y-105379274D01*
X113844733Y-105383228D01*
X113764815Y-105448815D01*
X113685463Y-105545506D01*
X113626498Y-105655820D01*
X113590188Y-105775518D01*
X113578715Y-105892005D01*
X113176000Y-105489290D01*
X113176000Y-103016000D01*
X114382065Y-103016000D01*
X114288893Y-103253288D01*
X115316000Y-104280395D01*
X116343107Y-103253288D01*
X116235274Y-102978662D01*
X115928616Y-102827784D01*
X115598415Y-102739631D01*
X115285708Y-102719423D01*
X115289396Y-102716396D01*
X115321803Y-102676908D01*
X115357937Y-102640774D01*
X115386328Y-102598284D01*
X115418734Y-102558797D01*
X115442814Y-102513746D01*
X115471205Y-102471256D01*
X115490762Y-102424042D01*
X115514841Y-102378993D01*
X115529669Y-102330113D01*
X115549226Y-102282898D01*
X115559196Y-102232777D01*
X115574024Y-102183895D01*
X115579031Y-102133057D01*
X115589000Y-102082939D01*
X115589000Y-102031838D01*
X115594007Y-101981000D01*
X115589000Y-101930162D01*
X115589000Y-101879061D01*
X115579031Y-101828943D01*
X115574024Y-101778105D01*
X115559196Y-101729223D01*
X115549226Y-101679102D01*
X115529669Y-101631887D01*
X115514841Y-101583007D01*
X115490762Y-101537958D01*
X115471205Y-101490744D01*
X115442814Y-101448254D01*
X115418734Y-101403203D01*
X115386328Y-101363716D01*
X115357937Y-101321226D01*
X115321803Y-101285092D01*
X115289396Y-101245604D01*
X115249908Y-101213197D01*
X115213774Y-101177063D01*
X115171284Y-101148672D01*
X115131797Y-101116266D01*
X115086746Y-101092186D01*
X115044256Y-101063795D01*
X114997042Y-101044238D01*
X114951993Y-101020159D01*
X114903113Y-101005331D01*
X114855898Y-100985774D01*
X114805777Y-100975804D01*
X114756895Y-100960976D01*
X114706057Y-100955969D01*
X114655939Y-100946000D01*
X112191838Y-100946000D01*
X112141000Y-100940993D01*
X112090162Y-100946000D01*
X112039061Y-100946000D01*
X111988943Y-100955969D01*
X111938105Y-100960976D01*
X111889223Y-100975804D01*
X111839102Y-100985774D01*
X111791887Y-101005331D01*
X111743007Y-101020159D01*
X111697958Y-101044238D01*
X111650744Y-101063795D01*
X111608254Y-101092186D01*
X111563203Y-101116266D01*
X111523716Y-101148672D01*
X111481226Y-101177063D01*
X111445092Y-101213197D01*
X111405604Y-101245604D01*
X111373197Y-101285092D01*
X111337063Y-101321226D01*
X111308672Y-101363716D01*
X111276266Y-101403203D01*
X111252186Y-101448254D01*
X111223795Y-101490744D01*
X111204238Y-101537958D01*
X111180159Y-101583007D01*
X111165331Y-101631887D01*
X111145774Y-101679102D01*
X111135804Y-101729223D01*
X111120976Y-101778105D01*
X111115969Y-101828943D01*
X111106000Y-101879061D01*
X111106000Y-101930162D01*
X111100993Y-101981000D01*
X111106000Y-102031838D01*
X111106001Y-105867162D01*
X111100994Y-105918000D01*
X111120977Y-106120895D01*
X111180160Y-106315993D01*
X111276266Y-106495797D01*
X111362521Y-106600898D01*
X111405605Y-106653396D01*
X111445092Y-106685802D01*
X112455197Y-107695908D01*
X112487604Y-107735396D01*
X112527092Y-107767803D01*
X112645202Y-107864734D01*
X112741309Y-107916104D01*
X112825007Y-107960841D01*
X113020105Y-108020024D01*
X113172162Y-108035000D01*
X113172171Y-108035000D01*
X113222999Y-108040006D01*
X113273827Y-108035000D01*
X113577928Y-108035000D01*
X113577928Y-108100000D01*
X113590188Y-108224482D01*
X113626498Y-108344180D01*
X113685463Y-108454494D01*
X113764815Y-108551185D01*
X113861506Y-108630537D01*
X113971820Y-108689502D01*
X114091518Y-108725812D01*
X114216000Y-108738072D01*
X116416000Y-108738072D01*
X116540482Y-108725812D01*
X116660180Y-108689502D01*
X116770494Y-108630537D01*
X116867185Y-108551185D01*
X116946537Y-108454494D01*
X117005502Y-108344180D01*
X117041812Y-108224482D01*
X117054072Y-108100000D01*
X117054072Y-107873916D01*
X117100606Y-107920450D01*
X117294692Y-108050134D01*
X117510348Y-108139461D01*
X117739288Y-108185000D01*
X117972712Y-108185000D01*
X118201652Y-108139461D01*
X118340001Y-108082156D01*
X118340001Y-130340000D01*
X86487000Y-130340000D01*
X86487000Y-123562408D01*
X89983000Y-123562408D01*
X89983000Y-123837592D01*
X90036686Y-124107490D01*
X90141995Y-124361727D01*
X90294880Y-124590535D01*
X90489465Y-124785120D01*
X90718273Y-124938005D01*
X90972510Y-125043314D01*
X91242408Y-125097000D01*
X91517592Y-125097000D01*
X91787490Y-125043314D01*
X92041727Y-124938005D01*
X92270535Y-124785120D01*
X92465120Y-124590535D01*
X92618005Y-124361727D01*
X92650000Y-124284485D01*
X92681995Y-124361727D01*
X92834880Y-124590535D01*
X93029465Y-124785120D01*
X93258273Y-124938005D01*
X93512510Y-125043314D01*
X93782408Y-125097000D01*
X94057592Y-125097000D01*
X94327490Y-125043314D01*
X94581727Y-124938005D01*
X94810535Y-124785120D01*
X95005120Y-124590535D01*
X95158005Y-124361727D01*
X95190000Y-124284485D01*
X95221995Y-124361727D01*
X95374880Y-124590535D01*
X95569465Y-124785120D01*
X95798273Y-124938005D01*
X96052510Y-125043314D01*
X96322408Y-125097000D01*
X96597592Y-125097000D01*
X96867490Y-125043314D01*
X97121727Y-124938005D01*
X97350535Y-124785120D01*
X97545120Y-124590535D01*
X97698005Y-124361727D01*
X97803314Y-124107490D01*
X97857000Y-123837592D01*
X97857000Y-123562408D01*
X100143000Y-123562408D01*
X100143000Y-123837592D01*
X100196686Y-124107490D01*
X100301995Y-124361727D01*
X100454880Y-124590535D01*
X100649465Y-124785120D01*
X100878273Y-124938005D01*
X101132510Y-125043314D01*
X101402408Y-125097000D01*
X101677592Y-125097000D01*
X101947490Y-125043314D01*
X102201727Y-124938005D01*
X102430535Y-124785120D01*
X102625120Y-124590535D01*
X102778005Y-124361727D01*
X102810000Y-124284485D01*
X102841995Y-124361727D01*
X102994880Y-124590535D01*
X103189465Y-124785120D01*
X103418273Y-124938005D01*
X103672510Y-125043314D01*
X103942408Y-125097000D01*
X104217592Y-125097000D01*
X104487490Y-125043314D01*
X104741727Y-124938005D01*
X104970535Y-124785120D01*
X105165120Y-124590535D01*
X105318005Y-124361727D01*
X105350000Y-124284485D01*
X105381995Y-124361727D01*
X105534880Y-124590535D01*
X105729465Y-124785120D01*
X105958273Y-124938005D01*
X106212510Y-125043314D01*
X106482408Y-125097000D01*
X106757592Y-125097000D01*
X107027490Y-125043314D01*
X107281727Y-124938005D01*
X107510535Y-124785120D01*
X107705120Y-124590535D01*
X107858005Y-124361727D01*
X107963314Y-124107490D01*
X108017000Y-123837592D01*
X108017000Y-123562408D01*
X107963314Y-123292510D01*
X107858005Y-123038273D01*
X107705120Y-122809465D01*
X107510535Y-122614880D01*
X107281727Y-122461995D01*
X107027490Y-122356686D01*
X106757592Y-122303000D01*
X106482408Y-122303000D01*
X106212510Y-122356686D01*
X105958273Y-122461995D01*
X105729465Y-122614880D01*
X105534880Y-122809465D01*
X105381995Y-123038273D01*
X105350000Y-123115515D01*
X105318005Y-123038273D01*
X105165120Y-122809465D01*
X104970535Y-122614880D01*
X104741727Y-122461995D01*
X104487490Y-122356686D01*
X104217592Y-122303000D01*
X103942408Y-122303000D01*
X103672510Y-122356686D01*
X103418273Y-122461995D01*
X103189465Y-122614880D01*
X102994880Y-122809465D01*
X102841995Y-123038273D01*
X102810000Y-123115515D01*
X102778005Y-123038273D01*
X102625120Y-122809465D01*
X102430535Y-122614880D01*
X102201727Y-122461995D01*
X101947490Y-122356686D01*
X101677592Y-122303000D01*
X101402408Y-122303000D01*
X101132510Y-122356686D01*
X100878273Y-122461995D01*
X100649465Y-122614880D01*
X100454880Y-122809465D01*
X100301995Y-123038273D01*
X100196686Y-123292510D01*
X100143000Y-123562408D01*
X97857000Y-123562408D01*
X97803314Y-123292510D01*
X97698005Y-123038273D01*
X97545120Y-122809465D01*
X97350535Y-122614880D01*
X97121727Y-122461995D01*
X96867490Y-122356686D01*
X96597592Y-122303000D01*
X96322408Y-122303000D01*
X96052510Y-122356686D01*
X95798273Y-122461995D01*
X95569465Y-122614880D01*
X95374880Y-122809465D01*
X95221995Y-123038273D01*
X95190000Y-123115515D01*
X95158005Y-123038273D01*
X95005120Y-122809465D01*
X94810535Y-122614880D01*
X94581727Y-122461995D01*
X94327490Y-122356686D01*
X94057592Y-122303000D01*
X93782408Y-122303000D01*
X93512510Y-122356686D01*
X93258273Y-122461995D01*
X93029465Y-122614880D01*
X92834880Y-122809465D01*
X92681995Y-123038273D01*
X92650000Y-123115515D01*
X92618005Y-123038273D01*
X92465120Y-122809465D01*
X92270535Y-122614880D01*
X92041727Y-122461995D01*
X91787490Y-122356686D01*
X91517592Y-122303000D01*
X91242408Y-122303000D01*
X90972510Y-122356686D01*
X90718273Y-122461995D01*
X90489465Y-122614880D01*
X90294880Y-122809465D01*
X90141995Y-123038273D01*
X90036686Y-123292510D01*
X89983000Y-123562408D01*
X86487000Y-123562408D01*
X86487000Y-122174000D01*
X86484560Y-122149224D01*
X86477333Y-122125399D01*
X86465597Y-122103443D01*
X86449803Y-122084197D01*
X86430557Y-122068403D01*
X86408601Y-122056667D01*
X86384776Y-122049440D01*
X86360000Y-122047000D01*
X85678899Y-122047000D01*
X85475349Y-121843450D01*
X85084721Y-121582440D01*
X84650679Y-121402654D01*
X84189902Y-121311000D01*
X83720098Y-121311000D01*
X83259321Y-121402654D01*
X82825279Y-121582440D01*
X82434651Y-121843450D01*
X82231101Y-122047000D01*
X37719000Y-122047000D01*
X37719000Y-121191653D01*
X38525952Y-121191653D01*
X38681962Y-121507214D01*
X39056745Y-121698020D01*
X39461551Y-121812044D01*
X39880824Y-121844902D01*
X40298451Y-121795334D01*
X40698383Y-121665243D01*
X40994038Y-121507214D01*
X41150048Y-121191653D01*
X39838000Y-119879605D01*
X38525952Y-121191653D01*
X37719000Y-121191653D01*
X37719000Y-119961057D01*
X37742666Y-120160451D01*
X37872757Y-120560383D01*
X38030786Y-120856038D01*
X38346347Y-121012048D01*
X39658395Y-119700000D01*
X40017605Y-119700000D01*
X41329653Y-121012048D01*
X41645214Y-120856038D01*
X41836020Y-120481255D01*
X41950044Y-120076449D01*
X41982902Y-119657176D01*
X41933334Y-119239549D01*
X41803243Y-118839617D01*
X41702776Y-118651653D01*
X69045952Y-118651653D01*
X69201962Y-118967214D01*
X69576745Y-119158020D01*
X69981551Y-119272044D01*
X70400824Y-119304902D01*
X70818451Y-119255334D01*
X71218383Y-119125243D01*
X71514038Y-118967214D01*
X71670048Y-118651653D01*
X70358000Y-117339605D01*
X69045952Y-118651653D01*
X41702776Y-118651653D01*
X41645214Y-118543962D01*
X41329653Y-118387952D01*
X40017605Y-119700000D01*
X39658395Y-119700000D01*
X38346347Y-118387952D01*
X38030786Y-118543962D01*
X37839980Y-118918745D01*
X37725956Y-119323551D01*
X37719000Y-119412311D01*
X37719000Y-118208347D01*
X38525952Y-118208347D01*
X39838000Y-119520395D01*
X41150048Y-118208347D01*
X40994038Y-117892786D01*
X40619255Y-117701980D01*
X40214449Y-117587956D01*
X39795176Y-117555098D01*
X39377549Y-117604666D01*
X38977617Y-117734757D01*
X38681962Y-117892786D01*
X38525952Y-118208347D01*
X37719000Y-118208347D01*
X37719000Y-117202824D01*
X68213098Y-117202824D01*
X68262666Y-117620451D01*
X68392757Y-118020383D01*
X68550786Y-118316038D01*
X68866347Y-118472048D01*
X70178395Y-117160000D01*
X70537605Y-117160000D01*
X71849653Y-118472048D01*
X72165214Y-118316038D01*
X72356020Y-117941255D01*
X72470044Y-117536449D01*
X72502902Y-117117176D01*
X72453334Y-116699549D01*
X72323243Y-116299617D01*
X72165214Y-116003962D01*
X71849653Y-115847952D01*
X70537605Y-117160000D01*
X70178395Y-117160000D01*
X68866347Y-115847952D01*
X68550786Y-116003962D01*
X68359980Y-116378745D01*
X68245956Y-116783551D01*
X68213098Y-117202824D01*
X37719000Y-117202824D01*
X37719000Y-116459000D01*
X56896000Y-116459000D01*
X56929398Y-116454530D01*
X56952661Y-116445660D01*
X56973746Y-116432422D01*
X57960676Y-115668347D01*
X69045952Y-115668347D01*
X70358000Y-116980395D01*
X71670048Y-115668347D01*
X71514038Y-115352786D01*
X71139255Y-115161980D01*
X70734449Y-115047956D01*
X70315176Y-115015098D01*
X69897549Y-115064666D01*
X69497617Y-115194757D01*
X69201962Y-115352786D01*
X69045952Y-115668347D01*
X57960676Y-115668347D01*
X64485332Y-110617000D01*
X81946815Y-110617000D01*
X81975487Y-110908111D01*
X82060401Y-111188034D01*
X82198294Y-111446014D01*
X82383866Y-111672134D01*
X82609986Y-111857706D01*
X82664791Y-111887000D01*
X82609986Y-111916294D01*
X82383866Y-112101866D01*
X82198294Y-112327986D01*
X82060401Y-112585966D01*
X81975487Y-112865889D01*
X81946815Y-113157000D01*
X81975487Y-113448111D01*
X82060401Y-113728034D01*
X82198294Y-113986014D01*
X82383866Y-114212134D01*
X82413687Y-114236607D01*
X82344820Y-114257498D01*
X82234506Y-114316463D01*
X82137815Y-114395815D01*
X82058463Y-114492506D01*
X81999498Y-114602820D01*
X81963188Y-114722518D01*
X81950928Y-114847000D01*
X81950928Y-116547000D01*
X81963188Y-116671482D01*
X81999498Y-116791180D01*
X82058463Y-116901494D01*
X82137815Y-116998185D01*
X82234506Y-117077537D01*
X82344820Y-117136502D01*
X82464518Y-117172812D01*
X82589000Y-117185072D01*
X84289000Y-117185072D01*
X84413482Y-117172812D01*
X84533180Y-117136502D01*
X84643494Y-117077537D01*
X84740185Y-116998185D01*
X84819537Y-116901494D01*
X84878502Y-116791180D01*
X84914812Y-116671482D01*
X84927072Y-116547000D01*
X84927072Y-114847000D01*
X84914812Y-114722518D01*
X84878502Y-114602820D01*
X84819537Y-114492506D01*
X84740185Y-114395815D01*
X84643494Y-114316463D01*
X84533180Y-114257498D01*
X84464313Y-114236607D01*
X84494134Y-114212134D01*
X84679706Y-113986014D01*
X84817599Y-113728034D01*
X84902513Y-113448111D01*
X84931185Y-113157000D01*
X84902513Y-112865889D01*
X84817599Y-112585966D01*
X84679706Y-112327986D01*
X84643608Y-112284000D01*
X90563928Y-112284000D01*
X90563928Y-114284000D01*
X90576188Y-114408482D01*
X90612498Y-114528180D01*
X90671463Y-114638494D01*
X90750815Y-114735185D01*
X90847506Y-114814537D01*
X90957820Y-114873502D01*
X91077518Y-114909812D01*
X91202000Y-114922072D01*
X93202000Y-114922072D01*
X93326482Y-114909812D01*
X93446180Y-114873502D01*
X93556494Y-114814537D01*
X93653185Y-114735185D01*
X93732537Y-114638494D01*
X93791502Y-114528180D01*
X93827812Y-114408482D01*
X93840072Y-114284000D01*
X93840072Y-112284000D01*
X93827812Y-112159518D01*
X93791502Y-112039820D01*
X93732537Y-111929506D01*
X93653185Y-111832815D01*
X93556494Y-111753463D01*
X93446180Y-111694498D01*
X93326482Y-111658188D01*
X93202000Y-111645928D01*
X91202000Y-111645928D01*
X91077518Y-111658188D01*
X90957820Y-111694498D01*
X90847506Y-111753463D01*
X90750815Y-111832815D01*
X90671463Y-111929506D01*
X90612498Y-112039820D01*
X90576188Y-112159518D01*
X90563928Y-112284000D01*
X84643608Y-112284000D01*
X84494134Y-112101866D01*
X84268014Y-111916294D01*
X84213209Y-111887000D01*
X84268014Y-111857706D01*
X84494134Y-111672134D01*
X84679706Y-111446014D01*
X84817599Y-111188034D01*
X84902513Y-110908111D01*
X84931185Y-110617000D01*
X84902513Y-110325889D01*
X84817599Y-110045966D01*
X84679706Y-109787986D01*
X84494134Y-109561866D01*
X84268014Y-109376294D01*
X84203477Y-109341799D01*
X84320355Y-109272178D01*
X84536588Y-109077269D01*
X84710641Y-108843920D01*
X84835825Y-108581099D01*
X84880476Y-108433890D01*
X84759155Y-108204000D01*
X83566000Y-108204000D01*
X83566000Y-108224000D01*
X83312000Y-108224000D01*
X83312000Y-108204000D01*
X82118845Y-108204000D01*
X81997524Y-108433890D01*
X82042175Y-108581099D01*
X82167359Y-108843920D01*
X82341412Y-109077269D01*
X82557645Y-109272178D01*
X82674523Y-109341799D01*
X82609986Y-109376294D01*
X82383866Y-109561866D01*
X82198294Y-109787986D01*
X82060401Y-110045966D01*
X81975487Y-110325889D01*
X81946815Y-110617000D01*
X64485332Y-110617000D01*
X64847746Y-110336422D01*
X64859803Y-110325803D01*
X64875597Y-110306557D01*
X64887333Y-110284601D01*
X64894560Y-110260776D01*
X64897000Y-110236000D01*
X64897000Y-96629721D01*
X68223000Y-96629721D01*
X68223000Y-97050279D01*
X68305047Y-97462756D01*
X68465988Y-97851302D01*
X68699637Y-98200983D01*
X68997017Y-98498363D01*
X69346698Y-98732012D01*
X69735244Y-98892953D01*
X70147721Y-98975000D01*
X70568279Y-98975000D01*
X70980756Y-98892953D01*
X71369302Y-98732012D01*
X71718983Y-98498363D01*
X72016363Y-98200983D01*
X72250012Y-97851302D01*
X72302328Y-97725000D01*
X76280422Y-97725000D01*
X77220001Y-98664580D01*
X77220000Y-105379546D01*
X77187795Y-105427744D01*
X77109774Y-105616102D01*
X77070000Y-105816061D01*
X77070000Y-106019939D01*
X77109774Y-106219898D01*
X77187795Y-106408256D01*
X77301063Y-106577774D01*
X77445226Y-106721937D01*
X77614744Y-106835205D01*
X77803102Y-106913226D01*
X77857494Y-106924045D01*
X77876182Y-106946816D01*
X78010940Y-107057410D01*
X78164686Y-107139588D01*
X78331509Y-107190194D01*
X78461522Y-107202999D01*
X78461532Y-107202999D01*
X78504998Y-107207280D01*
X78548465Y-107202999D01*
X82247230Y-107202999D01*
X82167359Y-107310080D01*
X82042175Y-107572901D01*
X81997524Y-107720110D01*
X82118845Y-107950000D01*
X83312000Y-107950000D01*
X83312000Y-107930000D01*
X83566000Y-107930000D01*
X83566000Y-107950000D01*
X84759155Y-107950000D01*
X84880476Y-107720110D01*
X84835825Y-107572901D01*
X84710641Y-107310080D01*
X84630770Y-107202999D01*
X85504421Y-107202999D01*
X87227470Y-108926049D01*
X87255183Y-108959817D01*
X87288951Y-108987530D01*
X87288953Y-108987532D01*
X87326416Y-109018277D01*
X87389941Y-109070411D01*
X87543687Y-109152589D01*
X87710510Y-109203195D01*
X87840523Y-109216000D01*
X87840533Y-109216000D01*
X87883999Y-109220281D01*
X87927465Y-109216000D01*
X96280422Y-109216000D01*
X97536980Y-110472559D01*
X97536981Y-114963427D01*
X97532699Y-115006906D01*
X97549785Y-115180396D01*
X97600392Y-115347219D01*
X97682570Y-115500965D01*
X97765448Y-115601952D01*
X97765451Y-115601955D01*
X97793164Y-115635723D01*
X97826931Y-115663436D01*
X101293495Y-119130000D01*
X95692579Y-119130000D01*
X94961035Y-118398457D01*
X94949726Y-118341602D01*
X94871705Y-118153244D01*
X94758437Y-117983726D01*
X94614274Y-117839563D01*
X94444756Y-117726295D01*
X94256398Y-117648274D01*
X94056439Y-117608500D01*
X93852561Y-117608500D01*
X93652602Y-117648274D01*
X93464244Y-117726295D01*
X93294726Y-117839563D01*
X93150563Y-117983726D01*
X93037295Y-118153244D01*
X92959274Y-118341602D01*
X92919500Y-118541561D01*
X92919500Y-118745439D01*
X92959274Y-118945398D01*
X93037295Y-119133756D01*
X93150563Y-119303274D01*
X93294726Y-119447437D01*
X93464244Y-119560705D01*
X93652602Y-119638726D01*
X93709457Y-119650035D01*
X94669470Y-120610049D01*
X94697183Y-120643817D01*
X94730951Y-120671530D01*
X94730953Y-120671532D01*
X94831940Y-120754410D01*
X94831941Y-120754411D01*
X94985687Y-120836589D01*
X95152510Y-120887195D01*
X95282523Y-120900000D01*
X95282531Y-120900000D01*
X95326000Y-120904281D01*
X95369469Y-120900000D01*
X108287531Y-120900000D01*
X108331000Y-120904281D01*
X108374469Y-120900000D01*
X108374477Y-120900000D01*
X108504490Y-120887195D01*
X108671313Y-120836589D01*
X108825059Y-120754411D01*
X108959817Y-120643817D01*
X108987534Y-120610044D01*
X109815049Y-119782530D01*
X109848817Y-119754817D01*
X109876533Y-119721046D01*
X109959411Y-119620059D01*
X109987991Y-119566589D01*
X110041589Y-119466313D01*
X110092195Y-119299490D01*
X110105000Y-119169477D01*
X110105000Y-119169469D01*
X110109281Y-119126000D01*
X110105560Y-119088212D01*
X112865000Y-119088212D01*
X112865000Y-119311788D01*
X112908617Y-119531067D01*
X112994176Y-119737624D01*
X113118388Y-119923520D01*
X113276480Y-120081612D01*
X113462376Y-120205824D01*
X113668933Y-120291383D01*
X113888212Y-120335000D01*
X114111788Y-120335000D01*
X114331067Y-120291383D01*
X114537624Y-120205824D01*
X114723520Y-120081612D01*
X114881612Y-119923520D01*
X115005824Y-119737624D01*
X115091383Y-119531067D01*
X115135000Y-119311788D01*
X115135000Y-119088212D01*
X115091383Y-118868933D01*
X115005824Y-118662376D01*
X114881612Y-118476480D01*
X114723520Y-118318388D01*
X114537624Y-118194176D01*
X114331067Y-118108617D01*
X114111788Y-118065000D01*
X113888212Y-118065000D01*
X113668933Y-118108617D01*
X113462376Y-118194176D01*
X113276480Y-118318388D01*
X113118388Y-118476480D01*
X112994176Y-118662376D01*
X112908617Y-118868933D01*
X112865000Y-119088212D01*
X110105560Y-119088212D01*
X110105000Y-119082531D01*
X110105000Y-114688212D01*
X112865000Y-114688212D01*
X112865000Y-114911788D01*
X112908617Y-115131067D01*
X112994176Y-115337624D01*
X113118388Y-115523520D01*
X113276480Y-115681612D01*
X113462376Y-115805824D01*
X113668933Y-115891383D01*
X113888212Y-115935000D01*
X114111788Y-115935000D01*
X114331067Y-115891383D01*
X114537624Y-115805824D01*
X114723520Y-115681612D01*
X114881612Y-115523520D01*
X115005824Y-115337624D01*
X115091383Y-115131067D01*
X115135000Y-114911788D01*
X115135000Y-114688212D01*
X115091383Y-114468933D01*
X115005824Y-114262376D01*
X114881612Y-114076480D01*
X114723520Y-113918388D01*
X114537624Y-113794176D01*
X114331067Y-113708617D01*
X114111788Y-113665000D01*
X113888212Y-113665000D01*
X113668933Y-113708617D01*
X113462376Y-113794176D01*
X113276480Y-113918388D01*
X113118388Y-114076480D01*
X112994176Y-114262376D01*
X112908617Y-114468933D01*
X112865000Y-114688212D01*
X110105000Y-114688212D01*
X110105000Y-114528150D01*
X110109281Y-114484684D01*
X110105000Y-114441218D01*
X110105000Y-114441208D01*
X110092195Y-114311195D01*
X110041589Y-114144372D01*
X109959411Y-113990626D01*
X109954085Y-113984137D01*
X109961226Y-113966898D01*
X110001000Y-113766939D01*
X110001000Y-113563061D01*
X109978000Y-113447431D01*
X109978000Y-106837454D01*
X110010205Y-106789256D01*
X110088226Y-106600898D01*
X110128000Y-106400939D01*
X110128000Y-106197061D01*
X110088226Y-105997102D01*
X110010205Y-105808744D01*
X109896937Y-105639226D01*
X109752774Y-105495063D01*
X109583256Y-105381795D01*
X109394898Y-105303774D01*
X109194939Y-105264000D01*
X108991061Y-105264000D01*
X108791102Y-105303774D01*
X108602744Y-105381795D01*
X108433226Y-105495063D01*
X108289063Y-105639226D01*
X108175795Y-105808744D01*
X108097774Y-105997102D01*
X108058000Y-106197061D01*
X108058000Y-106400939D01*
X108097774Y-106600898D01*
X108175795Y-106789256D01*
X108208000Y-106837454D01*
X108208001Y-112959288D01*
X108162063Y-113005226D01*
X108048795Y-113174744D01*
X107970774Y-113363102D01*
X107931000Y-113563061D01*
X107931000Y-113766939D01*
X107970774Y-113966898D01*
X108048795Y-114155256D01*
X108079606Y-114201368D01*
X108076719Y-114230685D01*
X108081000Y-114274154D01*
X108081000Y-114274162D01*
X108093805Y-114404175D01*
X108144411Y-114570998D01*
X108207063Y-114688212D01*
X108226590Y-114724744D01*
X108309468Y-114825731D01*
X108309471Y-114825734D01*
X108335000Y-114856841D01*
X108335000Y-115979517D01*
X108134757Y-115979517D01*
X107934798Y-116019291D01*
X107746440Y-116097312D01*
X107698242Y-116129517D01*
X102776096Y-116129517D01*
X101240535Y-114593957D01*
X101240532Y-114593953D01*
X100707000Y-114060422D01*
X100707000Y-101516469D01*
X100711281Y-101473000D01*
X100707000Y-101429531D01*
X100707000Y-101429523D01*
X100694195Y-101299510D01*
X100643589Y-101132687D01*
X100561411Y-100978941D01*
X100450817Y-100844183D01*
X100417050Y-100816471D01*
X97496046Y-97895468D01*
X97365522Y-97764944D01*
X97337807Y-97731173D01*
X97203049Y-97620579D01*
X97049303Y-97538401D01*
X96882480Y-97487795D01*
X96752467Y-97474990D01*
X96752459Y-97474990D01*
X96708990Y-97470709D01*
X96665521Y-97474990D01*
X92710564Y-97474990D01*
X92734212Y-97417898D01*
X92773986Y-97217939D01*
X92773986Y-97014061D01*
X92734212Y-96814102D01*
X92656191Y-96625744D01*
X92542923Y-96456226D01*
X92398760Y-96312063D01*
X92229242Y-96198795D01*
X92089386Y-96140864D01*
X92054226Y-95964102D01*
X91976205Y-95775744D01*
X91862937Y-95606226D01*
X91718774Y-95462063D01*
X91549256Y-95348795D01*
X91360898Y-95270774D01*
X91160939Y-95231000D01*
X90957061Y-95231000D01*
X90757102Y-95270774D01*
X90568744Y-95348795D01*
X90521500Y-95380362D01*
X90521500Y-90479954D01*
X90553705Y-90431756D01*
X90631726Y-90243398D01*
X90671500Y-90043439D01*
X90671500Y-89839561D01*
X90631726Y-89639602D01*
X90586741Y-89531000D01*
X91258107Y-89531000D01*
X91462952Y-89735845D01*
X91460774Y-89741102D01*
X91421000Y-89941061D01*
X91421000Y-90144939D01*
X91460774Y-90344898D01*
X91538795Y-90533256D01*
X91652063Y-90702774D01*
X91796226Y-90846937D01*
X91965744Y-90960205D01*
X92154102Y-91038226D01*
X92354061Y-91078000D01*
X92557939Y-91078000D01*
X92757898Y-91038226D01*
X92946256Y-90960205D01*
X92994454Y-90928000D01*
X107456422Y-90928000D01*
X108843000Y-92314579D01*
X108843001Y-94711544D01*
X108810795Y-94759744D01*
X108732774Y-94948102D01*
X108693000Y-95148061D01*
X108693000Y-95351939D01*
X108732774Y-95551898D01*
X108810795Y-95740256D01*
X108924063Y-95909774D01*
X109068226Y-96053937D01*
X109237744Y-96167205D01*
X109426102Y-96245226D01*
X109626061Y-96285000D01*
X109829939Y-96285000D01*
X110029898Y-96245226D01*
X110218256Y-96167205D01*
X110387774Y-96053937D01*
X110531937Y-95909774D01*
X110645205Y-95740256D01*
X110723226Y-95551898D01*
X110763000Y-95351939D01*
X110763000Y-95148061D01*
X110723226Y-94948102D01*
X110645205Y-94759744D01*
X110613000Y-94711546D01*
X110613000Y-91991469D01*
X110617281Y-91948000D01*
X110613000Y-91904531D01*
X110613000Y-91904523D01*
X110600195Y-91774510D01*
X110549589Y-91607687D01*
X110467411Y-91453941D01*
X110356817Y-91319183D01*
X110323050Y-91291471D01*
X108479534Y-89447956D01*
X108451817Y-89414183D01*
X108317059Y-89303589D01*
X108163313Y-89221411D01*
X107996490Y-89170805D01*
X107866477Y-89158000D01*
X107866469Y-89158000D01*
X107823000Y-89153719D01*
X107779531Y-89158000D01*
X93283959Y-89158000D01*
X93277589Y-89137002D01*
X93195411Y-88983256D01*
X93159874Y-88939954D01*
X93112532Y-88882268D01*
X93112530Y-88882266D01*
X93084817Y-88848498D01*
X93051049Y-88820785D01*
X92281219Y-88050956D01*
X92253502Y-88017183D01*
X92118744Y-87906589D01*
X91964998Y-87824411D01*
X91798175Y-87773805D01*
X91668162Y-87761000D01*
X91668154Y-87761000D01*
X91624685Y-87756719D01*
X91581216Y-87761000D01*
X90868314Y-87761000D01*
X90918059Y-87734411D01*
X91052817Y-87623817D01*
X91080534Y-87590044D01*
X92189165Y-86481413D01*
X109419192Y-86481413D01*
X109514956Y-86745814D01*
X109804571Y-86886704D01*
X110116108Y-86968384D01*
X110437595Y-86987718D01*
X110756675Y-86943961D01*
X111061088Y-86838795D01*
X111235044Y-86745814D01*
X111330808Y-86481413D01*
X110375000Y-85525605D01*
X109419192Y-86481413D01*
X92189165Y-86481413D01*
X93245049Y-85425530D01*
X93265684Y-85408595D01*
X108733282Y-85408595D01*
X108777039Y-85727675D01*
X108882205Y-86032088D01*
X108975186Y-86206044D01*
X109239587Y-86301808D01*
X110195395Y-85346000D01*
X110554605Y-85346000D01*
X111510413Y-86301808D01*
X111774814Y-86206044D01*
X111915704Y-85916429D01*
X111997384Y-85604892D01*
X112016718Y-85283405D01*
X111972961Y-84964325D01*
X111867795Y-84659912D01*
X111774814Y-84485956D01*
X111510413Y-84390192D01*
X110554605Y-85346000D01*
X110195395Y-85346000D01*
X109239587Y-84390192D01*
X108975186Y-84485956D01*
X108834296Y-84775571D01*
X108752616Y-85087108D01*
X108733282Y-85408595D01*
X93265684Y-85408595D01*
X93278817Y-85397817D01*
X93321343Y-85346000D01*
X93389410Y-85263060D01*
X93471588Y-85109314D01*
X93471589Y-85109313D01*
X93522195Y-84942490D01*
X93535000Y-84812477D01*
X93535000Y-84812467D01*
X93539281Y-84769001D01*
X93535000Y-84725535D01*
X93535000Y-84210587D01*
X109419192Y-84210587D01*
X110375000Y-85166395D01*
X111330808Y-84210587D01*
X111235044Y-83946186D01*
X110945429Y-83805296D01*
X110633892Y-83723616D01*
X110312405Y-83704282D01*
X109993325Y-83748039D01*
X109688912Y-83853205D01*
X109514956Y-83946186D01*
X109419192Y-84210587D01*
X93535000Y-84210587D01*
X93535000Y-72484967D01*
X108740000Y-72484967D01*
X108740000Y-72807033D01*
X108802832Y-73122912D01*
X108926082Y-73420463D01*
X109105013Y-73688252D01*
X109332748Y-73915987D01*
X109600537Y-74094918D01*
X109898088Y-74218168D01*
X110213967Y-74281000D01*
X110536033Y-74281000D01*
X110851912Y-74218168D01*
X111149463Y-74094918D01*
X111417252Y-73915987D01*
X111644987Y-73688252D01*
X111823918Y-73420463D01*
X111947168Y-73122912D01*
X112010000Y-72807033D01*
X112010000Y-72484967D01*
X111947168Y-72169088D01*
X111823918Y-71871537D01*
X111644987Y-71603748D01*
X111417252Y-71376013D01*
X111149463Y-71197082D01*
X110851912Y-71073832D01*
X110536033Y-71011000D01*
X110213967Y-71011000D01*
X109898088Y-71073832D01*
X109600537Y-71197082D01*
X109332748Y-71376013D01*
X109105013Y-71603748D01*
X108926082Y-71871537D01*
X108802832Y-72169088D01*
X108740000Y-72484967D01*
X93535000Y-72484967D01*
X93535000Y-69388818D01*
X93540535Y-69385120D01*
X93735120Y-69190535D01*
X93888005Y-68961727D01*
X93920000Y-68884485D01*
X93951995Y-68961727D01*
X94104880Y-69190535D01*
X94299465Y-69385120D01*
X94528273Y-69538005D01*
X94782510Y-69643314D01*
X95052408Y-69697000D01*
X95327592Y-69697000D01*
X95597490Y-69643314D01*
X95851727Y-69538005D01*
X96080535Y-69385120D01*
X96275120Y-69190535D01*
X96428005Y-68961727D01*
X96460000Y-68884485D01*
X96491995Y-68961727D01*
X96644880Y-69190535D01*
X96839465Y-69385120D01*
X97068273Y-69538005D01*
X97322510Y-69643314D01*
X97592408Y-69697000D01*
X97867592Y-69697000D01*
X98137490Y-69643314D01*
X98391727Y-69538005D01*
X98620535Y-69385120D01*
X98815120Y-69190535D01*
X98968005Y-68961727D01*
X99000000Y-68884485D01*
X99031995Y-68961727D01*
X99184880Y-69190535D01*
X99379465Y-69385120D01*
X99608273Y-69538005D01*
X99862510Y-69643314D01*
X100132408Y-69697000D01*
X100407592Y-69697000D01*
X100677490Y-69643314D01*
X100931727Y-69538005D01*
X101160535Y-69385120D01*
X101355120Y-69190535D01*
X101508005Y-68961727D01*
X101540000Y-68884485D01*
X101571995Y-68961727D01*
X101724880Y-69190535D01*
X101919465Y-69385120D01*
X102148273Y-69538005D01*
X102402510Y-69643314D01*
X102672408Y-69697000D01*
X102947592Y-69697000D01*
X103217490Y-69643314D01*
X103471727Y-69538005D01*
X103700535Y-69385120D01*
X103895120Y-69190535D01*
X104048005Y-68961727D01*
X104080000Y-68884485D01*
X104111995Y-68961727D01*
X104264880Y-69190535D01*
X104459465Y-69385120D01*
X104688273Y-69538005D01*
X104942510Y-69643314D01*
X105212408Y-69697000D01*
X105487592Y-69697000D01*
X105757490Y-69643314D01*
X106011727Y-69538005D01*
X106240535Y-69385120D01*
X106435120Y-69190535D01*
X106588005Y-68961727D01*
X106620000Y-68884485D01*
X106651995Y-68961727D01*
X106804880Y-69190535D01*
X106999465Y-69385120D01*
X107228273Y-69538005D01*
X107482510Y-69643314D01*
X107752408Y-69697000D01*
X108027592Y-69697000D01*
X108297490Y-69643314D01*
X108551727Y-69538005D01*
X108780535Y-69385120D01*
X108975120Y-69190535D01*
X109128005Y-68961727D01*
X109160000Y-68884485D01*
X109191995Y-68961727D01*
X109344880Y-69190535D01*
X109539465Y-69385120D01*
X109768273Y-69538005D01*
X110022510Y-69643314D01*
X110292408Y-69697000D01*
X110567592Y-69697000D01*
X110837490Y-69643314D01*
X111091727Y-69538005D01*
X111320535Y-69385120D01*
X111515120Y-69190535D01*
X111668005Y-68961727D01*
X111773314Y-68707490D01*
X111827000Y-68437592D01*
X111827000Y-68162408D01*
X111773314Y-67892510D01*
X111668005Y-67638273D01*
X111515120Y-67409465D01*
X111320535Y-67214880D01*
X111091727Y-67061995D01*
X110837490Y-66956686D01*
X110567592Y-66903000D01*
X110292408Y-66903000D01*
X110022510Y-66956686D01*
X109768273Y-67061995D01*
X109539465Y-67214880D01*
X109344880Y-67409465D01*
X109191995Y-67638273D01*
X109160000Y-67715515D01*
X109128005Y-67638273D01*
X108975120Y-67409465D01*
X108780535Y-67214880D01*
X108551727Y-67061995D01*
X108297490Y-66956686D01*
X108027592Y-66903000D01*
X107752408Y-66903000D01*
X107482510Y-66956686D01*
X107228273Y-67061995D01*
X106999465Y-67214880D01*
X106804880Y-67409465D01*
X106651995Y-67638273D01*
X106620000Y-67715515D01*
X106588005Y-67638273D01*
X106435120Y-67409465D01*
X106240535Y-67214880D01*
X106011727Y-67061995D01*
X105757490Y-66956686D01*
X105487592Y-66903000D01*
X105212408Y-66903000D01*
X104942510Y-66956686D01*
X104688273Y-67061995D01*
X104459465Y-67214880D01*
X104264880Y-67409465D01*
X104111995Y-67638273D01*
X104080000Y-67715515D01*
X104048005Y-67638273D01*
X103895120Y-67409465D01*
X103700535Y-67214880D01*
X103471727Y-67061995D01*
X103217490Y-66956686D01*
X102947592Y-66903000D01*
X102672408Y-66903000D01*
X102402510Y-66956686D01*
X102148273Y-67061995D01*
X101919465Y-67214880D01*
X101724880Y-67409465D01*
X101571995Y-67638273D01*
X101540000Y-67715515D01*
X101508005Y-67638273D01*
X101355120Y-67409465D01*
X101160535Y-67214880D01*
X100931727Y-67061995D01*
X100677490Y-66956686D01*
X100407592Y-66903000D01*
X100132408Y-66903000D01*
X99862510Y-66956686D01*
X99608273Y-67061995D01*
X99379465Y-67214880D01*
X99184880Y-67409465D01*
X99031995Y-67638273D01*
X99000000Y-67715515D01*
X98968005Y-67638273D01*
X98815120Y-67409465D01*
X98620535Y-67214880D01*
X98391727Y-67061995D01*
X98137490Y-66956686D01*
X97867592Y-66903000D01*
X97592408Y-66903000D01*
X97322510Y-66956686D01*
X97068273Y-67061995D01*
X96839465Y-67214880D01*
X96644880Y-67409465D01*
X96491995Y-67638273D01*
X96460000Y-67715515D01*
X96428005Y-67638273D01*
X96275120Y-67409465D01*
X96080535Y-67214880D01*
X95851727Y-67061995D01*
X95597490Y-66956686D01*
X95327592Y-66903000D01*
X95052408Y-66903000D01*
X94782510Y-66956686D01*
X94528273Y-67061995D01*
X94299465Y-67214880D01*
X94104880Y-67409465D01*
X93951995Y-67638273D01*
X93920000Y-67715515D01*
X93888005Y-67638273D01*
X93735120Y-67409465D01*
X93540535Y-67214880D01*
X93311727Y-67061995D01*
X93057490Y-66956686D01*
X92787592Y-66903000D01*
X92512408Y-66903000D01*
X92242510Y-66956686D01*
X91988273Y-67061995D01*
X91759465Y-67214880D01*
X91564880Y-67409465D01*
X91411995Y-67638273D01*
X91380000Y-67715515D01*
X91348005Y-67638273D01*
X91195120Y-67409465D01*
X91000535Y-67214880D01*
X90771727Y-67061995D01*
X90517490Y-66956686D01*
X90247592Y-66903000D01*
X89972408Y-66903000D01*
X89702510Y-66956686D01*
X89448273Y-67061995D01*
X89219465Y-67214880D01*
X89024880Y-67409465D01*
X88871995Y-67638273D01*
X88842308Y-67709943D01*
X88837636Y-67696977D01*
X88775656Y-67581020D01*
X88535565Y-67514040D01*
X87749605Y-68300000D01*
X88535565Y-69085960D01*
X88775656Y-69018980D01*
X88839485Y-68883240D01*
X88871995Y-68961727D01*
X89024880Y-69190535D01*
X89219465Y-69385120D01*
X89448273Y-69538005D01*
X89702510Y-69643314D01*
X89972408Y-69697000D01*
X90247592Y-69697000D01*
X90517490Y-69643314D01*
X90771727Y-69538005D01*
X91000535Y-69385120D01*
X91195120Y-69190535D01*
X91348005Y-68961727D01*
X91380000Y-68884485D01*
X91411995Y-68961727D01*
X91564880Y-69190535D01*
X91759465Y-69385120D01*
X91765000Y-69388818D01*
X91765001Y-84402420D01*
X90057422Y-86110000D01*
X85387469Y-86110000D01*
X85344000Y-86105719D01*
X85300531Y-86110000D01*
X85300523Y-86110000D01*
X85185306Y-86121348D01*
X85170509Y-86122805D01*
X85129340Y-86135294D01*
X85003687Y-86173411D01*
X84849941Y-86255589D01*
X84849939Y-86255590D01*
X84849940Y-86255590D01*
X84748953Y-86338468D01*
X84748951Y-86338470D01*
X84715183Y-86366183D01*
X84687470Y-86399951D01*
X82716956Y-88370466D01*
X82683183Y-88398183D01*
X82572589Y-88532942D01*
X82490411Y-88686688D01*
X82482305Y-88713411D01*
X82441326Y-88848498D01*
X82439805Y-88853511D01*
X82427000Y-88983524D01*
X82427000Y-88983531D01*
X82422719Y-89027000D01*
X82427000Y-89070469D01*
X82427001Y-93710740D01*
X82259503Y-93878238D01*
X82111215Y-94100167D01*
X82009072Y-94346761D01*
X81957000Y-94608544D01*
X81957000Y-94802422D01*
X81657000Y-94502422D01*
X81657000Y-93233259D01*
X81824497Y-93065762D01*
X81972785Y-92843833D01*
X82074928Y-92597239D01*
X82127000Y-92335456D01*
X82127000Y-92068544D01*
X82074928Y-91806761D01*
X81972785Y-91560167D01*
X81824497Y-91338238D01*
X81635762Y-91149503D01*
X81413833Y-91001215D01*
X81167239Y-90899072D01*
X80905456Y-90847000D01*
X80638544Y-90847000D01*
X80376761Y-90899072D01*
X80130167Y-91001215D01*
X79908238Y-91149503D01*
X79719503Y-91338238D01*
X79571215Y-91560167D01*
X79469072Y-91806761D01*
X79417000Y-92068544D01*
X79417000Y-92335456D01*
X79469072Y-92597239D01*
X79571215Y-92843833D01*
X79719503Y-93065762D01*
X79887001Y-93233260D01*
X79887000Y-94825531D01*
X79882719Y-94869000D01*
X79887000Y-94912469D01*
X79887000Y-94912476D01*
X79899805Y-95042489D01*
X79950411Y-95209312D01*
X80032589Y-95363058D01*
X80143183Y-95497817D01*
X80176956Y-95525534D01*
X80590423Y-95939002D01*
X80434499Y-95962937D01*
X80183647Y-96054125D01*
X80077932Y-96110632D01*
X80016045Y-96346440D01*
X80772000Y-97102395D01*
X80786143Y-97088253D01*
X80965748Y-97267858D01*
X80951605Y-97282000D01*
X81707560Y-98037955D01*
X81943368Y-97976068D01*
X82056266Y-97734210D01*
X82119811Y-97474973D01*
X82120380Y-97462068D01*
X82136125Y-97474990D01*
X82182941Y-97513411D01*
X82336687Y-97595589D01*
X82503510Y-97646195D01*
X82633523Y-97659000D01*
X82633531Y-97659000D01*
X82677000Y-97663281D01*
X82720469Y-97659000D01*
X84919531Y-97659000D01*
X84963000Y-97663281D01*
X85006469Y-97659000D01*
X85006477Y-97659000D01*
X85136490Y-97646195D01*
X85303313Y-97595589D01*
X85457059Y-97513411D01*
X85591817Y-97402817D01*
X85619534Y-97369044D01*
X86701049Y-96287530D01*
X86734817Y-96259817D01*
X86774731Y-96211183D01*
X86821210Y-96154548D01*
X86845411Y-96125059D01*
X86927589Y-95971313D01*
X86978195Y-95804490D01*
X86991000Y-95674477D01*
X86991000Y-95674467D01*
X86995281Y-95631001D01*
X86991000Y-95587535D01*
X86991000Y-89901578D01*
X87361579Y-89531000D01*
X88686259Y-89531000D01*
X88641274Y-89639602D01*
X88601500Y-89839561D01*
X88601500Y-90043439D01*
X88641274Y-90243398D01*
X88719295Y-90431756D01*
X88751501Y-90479956D01*
X88751500Y-96432921D01*
X86368957Y-98815465D01*
X86312102Y-98826774D01*
X86123744Y-98904795D01*
X85954226Y-99018063D01*
X85810063Y-99162226D01*
X85696795Y-99331744D01*
X85618774Y-99520102D01*
X85579000Y-99720061D01*
X85579000Y-99923939D01*
X85618774Y-100123898D01*
X85696795Y-100312256D01*
X85810063Y-100481774D01*
X85954226Y-100625937D01*
X86123744Y-100739205D01*
X86312102Y-100817226D01*
X86512061Y-100857000D01*
X86715939Y-100857000D01*
X86915898Y-100817226D01*
X87104256Y-100739205D01*
X87273774Y-100625937D01*
X87417937Y-100481774D01*
X87531205Y-100312256D01*
X87609226Y-100123898D01*
X87620535Y-100067043D01*
X89666000Y-98021579D01*
X89666000Y-98439216D01*
X89661719Y-98482685D01*
X89666000Y-98526154D01*
X89666000Y-98526161D01*
X89678805Y-98656174D01*
X89729411Y-98822997D01*
X89811589Y-98976743D01*
X89922183Y-99111502D01*
X89955956Y-99139219D01*
X90471781Y-99655044D01*
X90499498Y-99688817D01*
X90634256Y-99799411D01*
X90788002Y-99881589D01*
X90954825Y-99932195D01*
X91084838Y-99945000D01*
X91084846Y-99945000D01*
X91128315Y-99949281D01*
X91171784Y-99945000D01*
X96052460Y-99945000D01*
X98236991Y-102129532D01*
X98236990Y-108669412D01*
X97303534Y-107735956D01*
X97275817Y-107702183D01*
X97141059Y-107591589D01*
X96987313Y-107509411D01*
X96820490Y-107458805D01*
X96690477Y-107446000D01*
X96690469Y-107446000D01*
X96647000Y-107441719D01*
X96603531Y-107446000D01*
X88250579Y-107446000D01*
X86527531Y-105722953D01*
X86499816Y-105689182D01*
X86365058Y-105578588D01*
X86260998Y-105522967D01*
X90567000Y-105522967D01*
X90567000Y-105845033D01*
X90629832Y-106160912D01*
X90753082Y-106458463D01*
X90932013Y-106726252D01*
X91159748Y-106953987D01*
X91427537Y-107132918D01*
X91725088Y-107256168D01*
X92040967Y-107319000D01*
X92363033Y-107319000D01*
X92678912Y-107256168D01*
X92976463Y-107132918D01*
X93244252Y-106953987D01*
X93471987Y-106726252D01*
X93650918Y-106458463D01*
X93774168Y-106160912D01*
X93837000Y-105845033D01*
X93837000Y-105522967D01*
X93774168Y-105207088D01*
X93650918Y-104909537D01*
X93471987Y-104641748D01*
X93244252Y-104414013D01*
X92976463Y-104235082D01*
X92678912Y-104111832D01*
X92363033Y-104049000D01*
X92040967Y-104049000D01*
X91725088Y-104111832D01*
X91427537Y-104235082D01*
X91159748Y-104414013D01*
X90932013Y-104641748D01*
X90753082Y-104909537D01*
X90629832Y-105207088D01*
X90567000Y-105522967D01*
X86260998Y-105522967D01*
X86211312Y-105496410D01*
X86044489Y-105445804D01*
X85914476Y-105432999D01*
X85914468Y-105432999D01*
X85870999Y-105428718D01*
X85827530Y-105432999D01*
X82029488Y-105432999D01*
X82066266Y-105354210D01*
X82129811Y-105094973D01*
X82141561Y-104828320D01*
X82101063Y-104564499D01*
X82009875Y-104313647D01*
X81953368Y-104207932D01*
X81717560Y-104146045D01*
X80961605Y-104902000D01*
X80975748Y-104916143D01*
X80796143Y-105095748D01*
X80782000Y-105081605D01*
X80767858Y-105095748D01*
X80588253Y-104916143D01*
X80602395Y-104902000D01*
X79846440Y-104146045D01*
X79610632Y-104207932D01*
X79497734Y-104449790D01*
X79434189Y-104709027D01*
X79422439Y-104975680D01*
X79462937Y-105239501D01*
X79533276Y-105432999D01*
X79024382Y-105432999D01*
X79022205Y-105427744D01*
X78990000Y-105379546D01*
X78990000Y-103966440D01*
X80026045Y-103966440D01*
X80782000Y-104722395D01*
X81537955Y-103966440D01*
X81476068Y-103730632D01*
X81234210Y-103617734D01*
X80974973Y-103554189D01*
X80708320Y-103542439D01*
X80444499Y-103582937D01*
X80193647Y-103674125D01*
X80087932Y-103730632D01*
X80026045Y-103966440D01*
X78990000Y-103966440D01*
X78990000Y-102228544D01*
X81967000Y-102228544D01*
X81967000Y-102495456D01*
X82019072Y-102757239D01*
X82121215Y-103003833D01*
X82269503Y-103225762D01*
X82458238Y-103414497D01*
X82680167Y-103562785D01*
X82926761Y-103664928D01*
X83188544Y-103717000D01*
X83455456Y-103717000D01*
X83717239Y-103664928D01*
X83963833Y-103562785D01*
X84185762Y-103414497D01*
X84374497Y-103225762D01*
X84522785Y-103003833D01*
X84624928Y-102757239D01*
X84677000Y-102495456D01*
X84677000Y-102228544D01*
X84624928Y-101966761D01*
X84522785Y-101720167D01*
X84374497Y-101498238D01*
X84185762Y-101309503D01*
X83963833Y-101161215D01*
X83717239Y-101059072D01*
X83455456Y-101007000D01*
X83188544Y-101007000D01*
X82926761Y-101059072D01*
X82680167Y-101161215D01*
X82458238Y-101309503D01*
X82269503Y-101498238D01*
X82121215Y-101720167D01*
X82019072Y-101966761D01*
X81967000Y-102228544D01*
X78990000Y-102228544D01*
X78990000Y-99688544D01*
X79427000Y-99688544D01*
X79427000Y-99955456D01*
X79479072Y-100217239D01*
X79581215Y-100463833D01*
X79729503Y-100685762D01*
X79918238Y-100874497D01*
X80140167Y-101022785D01*
X80386761Y-101124928D01*
X80648544Y-101177000D01*
X80915456Y-101177000D01*
X81177239Y-101124928D01*
X81423833Y-101022785D01*
X81645762Y-100874497D01*
X81834497Y-100685762D01*
X81982785Y-100463833D01*
X82084928Y-100217239D01*
X82137000Y-99955456D01*
X82137000Y-99688544D01*
X82084928Y-99426761D01*
X81982785Y-99180167D01*
X81834497Y-98958238D01*
X81645762Y-98769503D01*
X81423833Y-98621215D01*
X81251002Y-98549626D01*
X81360353Y-98509875D01*
X81466068Y-98453368D01*
X81527955Y-98217560D01*
X80772000Y-97461605D01*
X80016045Y-98217560D01*
X80077932Y-98453368D01*
X80297709Y-98555959D01*
X80140167Y-98621215D01*
X79918238Y-98769503D01*
X79729503Y-98958238D01*
X79581215Y-99180167D01*
X79479072Y-99426761D01*
X79427000Y-99688544D01*
X78990000Y-99688544D01*
X78990000Y-98341465D01*
X78994281Y-98297999D01*
X78990000Y-98254533D01*
X78990000Y-98254523D01*
X78977195Y-98124510D01*
X78926589Y-97957687D01*
X78844411Y-97803941D01*
X78787184Y-97734210D01*
X78761532Y-97702953D01*
X78761530Y-97702951D01*
X78733817Y-97669183D01*
X78700049Y-97641470D01*
X78414259Y-97355680D01*
X79412439Y-97355680D01*
X79452937Y-97619501D01*
X79544125Y-97870353D01*
X79600632Y-97976068D01*
X79836440Y-98037955D01*
X80592395Y-97282000D01*
X79836440Y-96526045D01*
X79600632Y-96587932D01*
X79487734Y-96829790D01*
X79424189Y-97089027D01*
X79412439Y-97355680D01*
X78414259Y-97355680D01*
X77303534Y-96244956D01*
X77275817Y-96211183D01*
X77141059Y-96100589D01*
X76987313Y-96018411D01*
X76820490Y-95967805D01*
X76690477Y-95955000D01*
X76690469Y-95955000D01*
X76647000Y-95950719D01*
X76603531Y-95955000D01*
X72302328Y-95955000D01*
X72250012Y-95828698D01*
X72016363Y-95479017D01*
X71718983Y-95181637D01*
X71369302Y-94947988D01*
X70980756Y-94787047D01*
X70568279Y-94705000D01*
X70147721Y-94705000D01*
X69735244Y-94787047D01*
X69346698Y-94947988D01*
X68997017Y-95181637D01*
X68699637Y-95479017D01*
X68465988Y-95828698D01*
X68305047Y-96217244D01*
X68223000Y-96629721D01*
X64897000Y-96629721D01*
X64897000Y-95045401D01*
X67619868Y-92075000D01*
X72644000Y-92075000D01*
X72668776Y-92072560D01*
X72692601Y-92065333D01*
X72714557Y-92053597D01*
X72733803Y-92037803D01*
X72749597Y-92018557D01*
X72761333Y-91996601D01*
X72768560Y-91972776D01*
X72771000Y-91948000D01*
X72771000Y-87376000D01*
X73564815Y-87376000D01*
X73593487Y-87667111D01*
X73678401Y-87947034D01*
X73816294Y-88205014D01*
X74001866Y-88431134D01*
X74227986Y-88616706D01*
X74485966Y-88754599D01*
X74765889Y-88839513D01*
X74984050Y-88861000D01*
X75129950Y-88861000D01*
X75348111Y-88839513D01*
X75628034Y-88754599D01*
X75886014Y-88616706D01*
X76112134Y-88431134D01*
X76297706Y-88205014D01*
X76435599Y-87947034D01*
X76520513Y-87667111D01*
X76549185Y-87376000D01*
X76520513Y-87084889D01*
X76435599Y-86804966D01*
X76297706Y-86546986D01*
X76112134Y-86320866D01*
X76082313Y-86296393D01*
X76151180Y-86275502D01*
X76261494Y-86216537D01*
X76358185Y-86137185D01*
X76437537Y-86040494D01*
X76496502Y-85930180D01*
X76532812Y-85810482D01*
X76541625Y-85721000D01*
X85681531Y-85721000D01*
X85725000Y-85725281D01*
X85768469Y-85721000D01*
X85768477Y-85721000D01*
X85898490Y-85708195D01*
X86065313Y-85657589D01*
X86219059Y-85575411D01*
X86353817Y-85464817D01*
X86381534Y-85431044D01*
X86997050Y-84815529D01*
X87030817Y-84787817D01*
X87141411Y-84653059D01*
X87172171Y-84595511D01*
X87223589Y-84499314D01*
X87274195Y-84332490D01*
X87286201Y-84210587D01*
X87287000Y-84202477D01*
X87287000Y-84202469D01*
X87291281Y-84159000D01*
X87287000Y-84115531D01*
X87287000Y-82366454D01*
X87319205Y-82318256D01*
X87397226Y-82129898D01*
X87437000Y-81929939D01*
X87437000Y-81726061D01*
X87397226Y-81526102D01*
X87319205Y-81337744D01*
X87205937Y-81168226D01*
X87061774Y-81024063D01*
X86892256Y-80910795D01*
X86703898Y-80832774D01*
X86503939Y-80793000D01*
X86300061Y-80793000D01*
X86100102Y-80832774D01*
X85911744Y-80910795D01*
X85742226Y-81024063D01*
X85598063Y-81168226D01*
X85484795Y-81337744D01*
X85406774Y-81526102D01*
X85367000Y-81726061D01*
X85367000Y-81929939D01*
X85406774Y-82129898D01*
X85484795Y-82318256D01*
X85517001Y-82366455D01*
X85517000Y-83792421D01*
X85358422Y-83951000D01*
X76541625Y-83951000D01*
X76532812Y-83861518D01*
X76496502Y-83741820D01*
X76437537Y-83631506D01*
X76358185Y-83534815D01*
X76261494Y-83455463D01*
X76151180Y-83396498D01*
X76031482Y-83360188D01*
X75907000Y-83347928D01*
X74207000Y-83347928D01*
X74082518Y-83360188D01*
X73962820Y-83396498D01*
X73852506Y-83455463D01*
X73755815Y-83534815D01*
X73676463Y-83631506D01*
X73617498Y-83741820D01*
X73581188Y-83861518D01*
X73568928Y-83986000D01*
X73568928Y-85686000D01*
X73581188Y-85810482D01*
X73617498Y-85930180D01*
X73676463Y-86040494D01*
X73755815Y-86137185D01*
X73852506Y-86216537D01*
X73962820Y-86275502D01*
X74031687Y-86296393D01*
X74001866Y-86320866D01*
X73816294Y-86546986D01*
X73678401Y-86804966D01*
X73593487Y-87084889D01*
X73564815Y-87376000D01*
X72771000Y-87376000D01*
X72771000Y-75692000D01*
X73564815Y-75692000D01*
X73593487Y-75983111D01*
X73678401Y-76263034D01*
X73816294Y-76521014D01*
X74001866Y-76747134D01*
X74227986Y-76932706D01*
X74485966Y-77070599D01*
X74765889Y-77155513D01*
X74984050Y-77177000D01*
X75129950Y-77177000D01*
X75348111Y-77155513D01*
X75628034Y-77070599D01*
X75886014Y-76932706D01*
X76112134Y-76747134D01*
X76297706Y-76521014D01*
X76435599Y-76263034D01*
X76520513Y-75983111D01*
X76549185Y-75692000D01*
X76520513Y-75400889D01*
X76435599Y-75120966D01*
X76297706Y-74862986D01*
X76112134Y-74636866D01*
X76082313Y-74612393D01*
X76151180Y-74591502D01*
X76261494Y-74532537D01*
X76358185Y-74453185D01*
X76437537Y-74356494D01*
X76496502Y-74246180D01*
X76532812Y-74126482D01*
X76541625Y-74037000D01*
X80995546Y-74037000D01*
X81043744Y-74069205D01*
X81232102Y-74147226D01*
X81432061Y-74187000D01*
X81635939Y-74187000D01*
X81835898Y-74147226D01*
X82024256Y-74069205D01*
X82193774Y-73955937D01*
X82337937Y-73811774D01*
X82451205Y-73642256D01*
X82529226Y-73453898D01*
X82569000Y-73253939D01*
X82569000Y-73050061D01*
X82529226Y-72850102D01*
X82451205Y-72661744D01*
X82337937Y-72492226D01*
X82193774Y-72348063D01*
X82024256Y-72234795D01*
X81835898Y-72156774D01*
X81635939Y-72117000D01*
X81432061Y-72117000D01*
X81232102Y-72156774D01*
X81043744Y-72234795D01*
X80995546Y-72267000D01*
X76541625Y-72267000D01*
X76532812Y-72177518D01*
X76496502Y-72057820D01*
X76437537Y-71947506D01*
X76358185Y-71850815D01*
X76261494Y-71771463D01*
X76151180Y-71712498D01*
X76031482Y-71676188D01*
X75907000Y-71663928D01*
X74207000Y-71663928D01*
X74082518Y-71676188D01*
X73962820Y-71712498D01*
X73852506Y-71771463D01*
X73755815Y-71850815D01*
X73676463Y-71947506D01*
X73617498Y-72057820D01*
X73581188Y-72177518D01*
X73568928Y-72302000D01*
X73568928Y-74002000D01*
X73581188Y-74126482D01*
X73617498Y-74246180D01*
X73676463Y-74356494D01*
X73755815Y-74453185D01*
X73852506Y-74532537D01*
X73962820Y-74591502D01*
X74031687Y-74612393D01*
X74001866Y-74636866D01*
X73816294Y-74862986D01*
X73678401Y-75120966D01*
X73593487Y-75400889D01*
X73564815Y-75692000D01*
X72771000Y-75692000D01*
X72771000Y-69265565D01*
X86784040Y-69265565D01*
X86851020Y-69505656D01*
X87100048Y-69622756D01*
X87367135Y-69689023D01*
X87642017Y-69701910D01*
X87914133Y-69660922D01*
X88173023Y-69567636D01*
X88288980Y-69505656D01*
X88355960Y-69265565D01*
X87570000Y-68479605D01*
X86784040Y-69265565D01*
X72771000Y-69265565D01*
X72771000Y-66061098D01*
X81570000Y-66061098D01*
X81570000Y-66530902D01*
X81661654Y-66991679D01*
X81841440Y-67425721D01*
X82102450Y-67816349D01*
X82434651Y-68148550D01*
X82825279Y-68409560D01*
X83259321Y-68589346D01*
X83720098Y-68681000D01*
X84189902Y-68681000D01*
X84650679Y-68589346D01*
X85084721Y-68409560D01*
X85140907Y-68372017D01*
X86168090Y-68372017D01*
X86209078Y-68644133D01*
X86302364Y-68903023D01*
X86364344Y-69018980D01*
X86604435Y-69085960D01*
X87390395Y-68300000D01*
X86604435Y-67514040D01*
X86364344Y-67581020D01*
X86247244Y-67830048D01*
X86180977Y-68097135D01*
X86168090Y-68372017D01*
X85140907Y-68372017D01*
X85475349Y-68148550D01*
X85807550Y-67816349D01*
X86068560Y-67425721D01*
X86106371Y-67334435D01*
X86784040Y-67334435D01*
X87570000Y-68120395D01*
X88355960Y-67334435D01*
X88288980Y-67094344D01*
X88039952Y-66977244D01*
X87772865Y-66910977D01*
X87497983Y-66898090D01*
X87225867Y-66939078D01*
X86966977Y-67032364D01*
X86851020Y-67094344D01*
X86784040Y-67334435D01*
X86106371Y-67334435D01*
X86248346Y-66991679D01*
X86340000Y-66530902D01*
X86340000Y-66061098D01*
X86248346Y-65600321D01*
X86068560Y-65166279D01*
X85807550Y-64775651D01*
X85475349Y-64443450D01*
X85084721Y-64182440D01*
X84650679Y-64002654D01*
X84189902Y-63911000D01*
X83720098Y-63911000D01*
X83259321Y-64002654D01*
X82825279Y-64182440D01*
X82434651Y-64443450D01*
X82102450Y-64775651D01*
X81841440Y-65166279D01*
X81661654Y-65600321D01*
X81570000Y-66061098D01*
X72771000Y-66061098D01*
X72771000Y-61660000D01*
X118340000Y-61660000D01*
X118340001Y-103377844D01*
G36*
X61341000Y-70044654D02*
G01*
X61334369Y-70038023D01*
X61217959Y-70154433D01*
X61150980Y-69914344D01*
X60901952Y-69797244D01*
X60634865Y-69730977D01*
X60359983Y-69718090D01*
X60087867Y-69759078D01*
X59828977Y-69852364D01*
X59713020Y-69914344D01*
X59646040Y-70154435D01*
X60432000Y-70940395D01*
X60446143Y-70926253D01*
X60625748Y-71105858D01*
X60611605Y-71120000D01*
X60625748Y-71134143D01*
X60446143Y-71313748D01*
X60432000Y-71299605D01*
X59646040Y-72085565D01*
X59713020Y-72325656D01*
X59962048Y-72442756D01*
X60229135Y-72509023D01*
X60504017Y-72521910D01*
X60776133Y-72480922D01*
X61035023Y-72387636D01*
X61150980Y-72325656D01*
X61217959Y-72085567D01*
X61334369Y-72201977D01*
X61341000Y-72195346D01*
X61341000Y-75124654D01*
X61334369Y-75118023D01*
X61217959Y-75234433D01*
X61150980Y-74994344D01*
X60901952Y-74877244D01*
X60634865Y-74810977D01*
X60359983Y-74798090D01*
X60087867Y-74839078D01*
X59828977Y-74932364D01*
X59713020Y-74994344D01*
X59646040Y-75234435D01*
X60432000Y-76020395D01*
X60446143Y-76006253D01*
X60625748Y-76185858D01*
X60611605Y-76200000D01*
X60625748Y-76214143D01*
X60446143Y-76393748D01*
X60432000Y-76379605D01*
X59646040Y-77165565D01*
X59713020Y-77405656D01*
X59962048Y-77522756D01*
X60229135Y-77589023D01*
X60504017Y-77601910D01*
X60776133Y-77560922D01*
X61035023Y-77467636D01*
X61150980Y-77405656D01*
X61217959Y-77165567D01*
X61334369Y-77281977D01*
X61341000Y-77275346D01*
X61341000Y-80899000D01*
X51308000Y-80899000D01*
X51273725Y-80903713D01*
X51250527Y-80912749D01*
X51229537Y-80926138D01*
X47673537Y-83720138D01*
X47662197Y-83730197D01*
X47646403Y-83749443D01*
X47634667Y-83771399D01*
X47627440Y-83795224D01*
X47625000Y-83820000D01*
X47625000Y-89789000D01*
X27660000Y-89789000D01*
X27660000Y-77165565D01*
X36646040Y-77165565D01*
X36713020Y-77405656D01*
X36962048Y-77522756D01*
X37229135Y-77589023D01*
X37504017Y-77601910D01*
X37776133Y-77560922D01*
X38035023Y-77467636D01*
X38150980Y-77405656D01*
X38217960Y-77165565D01*
X37432000Y-76379605D01*
X36646040Y-77165565D01*
X27660000Y-77165565D01*
X27660000Y-76272017D01*
X36030090Y-76272017D01*
X36071078Y-76544133D01*
X36164364Y-76803023D01*
X36226344Y-76918980D01*
X36466435Y-76985960D01*
X37252395Y-76200000D01*
X37611605Y-76200000D01*
X38397565Y-76985960D01*
X38637656Y-76918980D01*
X38754756Y-76669952D01*
X38821023Y-76402865D01*
X38827157Y-76272017D01*
X59030090Y-76272017D01*
X59071078Y-76544133D01*
X59164364Y-76803023D01*
X59226344Y-76918980D01*
X59466435Y-76985960D01*
X60252395Y-76200000D01*
X59466435Y-75414040D01*
X59226344Y-75481020D01*
X59109244Y-75730048D01*
X59042977Y-75997135D01*
X59030090Y-76272017D01*
X38827157Y-76272017D01*
X38833910Y-76127983D01*
X38792922Y-75855867D01*
X38699636Y-75596977D01*
X38637656Y-75481020D01*
X38397565Y-75414040D01*
X37611605Y-76200000D01*
X37252395Y-76200000D01*
X36466435Y-75414040D01*
X36226344Y-75481020D01*
X36109244Y-75730048D01*
X36042977Y-75997135D01*
X36030090Y-76272017D01*
X27660000Y-76272017D01*
X27660000Y-75234435D01*
X36646040Y-75234435D01*
X37432000Y-76020395D01*
X38217960Y-75234435D01*
X38150980Y-74994344D01*
X37901952Y-74877244D01*
X37634865Y-74810977D01*
X37359983Y-74798090D01*
X37087867Y-74839078D01*
X36828977Y-74932364D01*
X36713020Y-74994344D01*
X36646040Y-75234435D01*
X27660000Y-75234435D01*
X27660000Y-74625565D01*
X29026040Y-74625565D01*
X29093020Y-74865656D01*
X29342048Y-74982756D01*
X29609135Y-75049023D01*
X29884017Y-75061910D01*
X30156133Y-75020922D01*
X30415023Y-74927636D01*
X30530980Y-74865656D01*
X30597960Y-74625565D01*
X52026040Y-74625565D01*
X52093020Y-74865656D01*
X52342048Y-74982756D01*
X52609135Y-75049023D01*
X52884017Y-75061910D01*
X53156133Y-75020922D01*
X53415023Y-74927636D01*
X53530980Y-74865656D01*
X53597960Y-74625565D01*
X52812000Y-73839605D01*
X52026040Y-74625565D01*
X30597960Y-74625565D01*
X29812000Y-73839605D01*
X29026040Y-74625565D01*
X27660000Y-74625565D01*
X27660000Y-73732017D01*
X28410090Y-73732017D01*
X28451078Y-74004133D01*
X28544364Y-74263023D01*
X28606344Y-74378980D01*
X28846435Y-74445960D01*
X29632395Y-73660000D01*
X29991605Y-73660000D01*
X30777565Y-74445960D01*
X31017656Y-74378980D01*
X31134756Y-74129952D01*
X31201023Y-73862865D01*
X31207157Y-73732017D01*
X51410090Y-73732017D01*
X51451078Y-74004133D01*
X51544364Y-74263023D01*
X51606344Y-74378980D01*
X51846435Y-74445960D01*
X52632395Y-73660000D01*
X52991605Y-73660000D01*
X53777565Y-74445960D01*
X54017656Y-74378980D01*
X54134756Y-74129952D01*
X54201023Y-73862865D01*
X54213910Y-73587983D01*
X54172922Y-73315867D01*
X54079636Y-73056977D01*
X54017656Y-72941020D01*
X53777565Y-72874040D01*
X52991605Y-73660000D01*
X52632395Y-73660000D01*
X51846435Y-72874040D01*
X51606344Y-72941020D01*
X51489244Y-73190048D01*
X51422977Y-73457135D01*
X51410090Y-73732017D01*
X31207157Y-73732017D01*
X31213910Y-73587983D01*
X31172922Y-73315867D01*
X31079636Y-73056977D01*
X31017656Y-72941020D01*
X30777565Y-72874040D01*
X29991605Y-73660000D01*
X29632395Y-73660000D01*
X28846435Y-72874040D01*
X28606344Y-72941020D01*
X28489244Y-73190048D01*
X28422977Y-73457135D01*
X28410090Y-73732017D01*
X27660000Y-73732017D01*
X27660000Y-72694435D01*
X29026040Y-72694435D01*
X29812000Y-73480395D01*
X30597960Y-72694435D01*
X52026040Y-72694435D01*
X52812000Y-73480395D01*
X53597960Y-72694435D01*
X53530980Y-72454344D01*
X53281952Y-72337244D01*
X53014865Y-72270977D01*
X52739983Y-72258090D01*
X52467867Y-72299078D01*
X52208977Y-72392364D01*
X52093020Y-72454344D01*
X52026040Y-72694435D01*
X30597960Y-72694435D01*
X30530980Y-72454344D01*
X30281952Y-72337244D01*
X30014865Y-72270977D01*
X29739983Y-72258090D01*
X29467867Y-72299078D01*
X29208977Y-72392364D01*
X29093020Y-72454344D01*
X29026040Y-72694435D01*
X27660000Y-72694435D01*
X27660000Y-72085565D01*
X36646040Y-72085565D01*
X36713020Y-72325656D01*
X36962048Y-72442756D01*
X37229135Y-72509023D01*
X37504017Y-72521910D01*
X37776133Y-72480922D01*
X38035023Y-72387636D01*
X38150980Y-72325656D01*
X38217960Y-72085565D01*
X37432000Y-71299605D01*
X36646040Y-72085565D01*
X27660000Y-72085565D01*
X27660000Y-71192017D01*
X36030090Y-71192017D01*
X36071078Y-71464133D01*
X36164364Y-71723023D01*
X36226344Y-71838980D01*
X36466435Y-71905960D01*
X37252395Y-71120000D01*
X37611605Y-71120000D01*
X38397565Y-71905960D01*
X38637656Y-71838980D01*
X38754756Y-71589952D01*
X38821023Y-71322865D01*
X38827157Y-71192017D01*
X59030090Y-71192017D01*
X59071078Y-71464133D01*
X59164364Y-71723023D01*
X59226344Y-71838980D01*
X59466435Y-71905960D01*
X60252395Y-71120000D01*
X59466435Y-70334040D01*
X59226344Y-70401020D01*
X59109244Y-70650048D01*
X59042977Y-70917135D01*
X59030090Y-71192017D01*
X38827157Y-71192017D01*
X38833910Y-71047983D01*
X38792922Y-70775867D01*
X38699636Y-70516977D01*
X38637656Y-70401020D01*
X38397565Y-70334040D01*
X37611605Y-71120000D01*
X37252395Y-71120000D01*
X36466435Y-70334040D01*
X36226344Y-70401020D01*
X36109244Y-70650048D01*
X36042977Y-70917135D01*
X36030090Y-71192017D01*
X27660000Y-71192017D01*
X27660000Y-70154435D01*
X36646040Y-70154435D01*
X37432000Y-70940395D01*
X38217960Y-70154435D01*
X38150980Y-69914344D01*
X37901952Y-69797244D01*
X37634865Y-69730977D01*
X37359983Y-69718090D01*
X37087867Y-69759078D01*
X36828977Y-69852364D01*
X36713020Y-69914344D01*
X36646040Y-70154435D01*
X27660000Y-70154435D01*
X27660000Y-61660000D01*
X61341000Y-61660000D01*
X61341000Y-70044654D01*
X61341000Y-70044654D01*
G37*
X61341000Y-70044654D02*
X61334369Y-70038023D01*
X61217959Y-70154433D01*
X61150980Y-69914344D01*
X60901952Y-69797244D01*
X60634865Y-69730977D01*
X60359983Y-69718090D01*
X60087867Y-69759078D01*
X59828977Y-69852364D01*
X59713020Y-69914344D01*
X59646040Y-70154435D01*
X60432000Y-70940395D01*
X60446143Y-70926253D01*
X60625748Y-71105858D01*
X60611605Y-71120000D01*
X60625748Y-71134143D01*
X60446143Y-71313748D01*
X60432000Y-71299605D01*
X59646040Y-72085565D01*
X59713020Y-72325656D01*
X59962048Y-72442756D01*
X60229135Y-72509023D01*
X60504017Y-72521910D01*
X60776133Y-72480922D01*
X61035023Y-72387636D01*
X61150980Y-72325656D01*
X61217959Y-72085567D01*
X61334369Y-72201977D01*
X61341000Y-72195346D01*
X61341000Y-75124654D01*
X61334369Y-75118023D01*
X61217959Y-75234433D01*
X61150980Y-74994344D01*
X60901952Y-74877244D01*
X60634865Y-74810977D01*
X60359983Y-74798090D01*
X60087867Y-74839078D01*
X59828977Y-74932364D01*
X59713020Y-74994344D01*
X59646040Y-75234435D01*
X60432000Y-76020395D01*
X60446143Y-76006253D01*
X60625748Y-76185858D01*
X60611605Y-76200000D01*
X60625748Y-76214143D01*
X60446143Y-76393748D01*
X60432000Y-76379605D01*
X59646040Y-77165565D01*
X59713020Y-77405656D01*
X59962048Y-77522756D01*
X60229135Y-77589023D01*
X60504017Y-77601910D01*
X60776133Y-77560922D01*
X61035023Y-77467636D01*
X61150980Y-77405656D01*
X61217959Y-77165567D01*
X61334369Y-77281977D01*
X61341000Y-77275346D01*
X61341000Y-80899000D01*
X51308000Y-80899000D01*
X51273725Y-80903713D01*
X51250527Y-80912749D01*
X51229537Y-80926138D01*
X47673537Y-83720138D01*
X47662197Y-83730197D01*
X47646403Y-83749443D01*
X47634667Y-83771399D01*
X47627440Y-83795224D01*
X47625000Y-83820000D01*
X47625000Y-89789000D01*
X27660000Y-89789000D01*
X27660000Y-77165565D01*
X36646040Y-77165565D01*
X36713020Y-77405656D01*
X36962048Y-77522756D01*
X37229135Y-77589023D01*
X37504017Y-77601910D01*
X37776133Y-77560922D01*
X38035023Y-77467636D01*
X38150980Y-77405656D01*
X38217960Y-77165565D01*
X37432000Y-76379605D01*
X36646040Y-77165565D01*
X27660000Y-77165565D01*
X27660000Y-76272017D01*
X36030090Y-76272017D01*
X36071078Y-76544133D01*
X36164364Y-76803023D01*
X36226344Y-76918980D01*
X36466435Y-76985960D01*
X37252395Y-76200000D01*
X37611605Y-76200000D01*
X38397565Y-76985960D01*
X38637656Y-76918980D01*
X38754756Y-76669952D01*
X38821023Y-76402865D01*
X38827157Y-76272017D01*
X59030090Y-76272017D01*
X59071078Y-76544133D01*
X59164364Y-76803023D01*
X59226344Y-76918980D01*
X59466435Y-76985960D01*
X60252395Y-76200000D01*
X59466435Y-75414040D01*
X59226344Y-75481020D01*
X59109244Y-75730048D01*
X59042977Y-75997135D01*
X59030090Y-76272017D01*
X38827157Y-76272017D01*
X38833910Y-76127983D01*
X38792922Y-75855867D01*
X38699636Y-75596977D01*
X38637656Y-75481020D01*
X38397565Y-75414040D01*
X37611605Y-76200000D01*
X37252395Y-76200000D01*
X36466435Y-75414040D01*
X36226344Y-75481020D01*
X36109244Y-75730048D01*
X36042977Y-75997135D01*
X36030090Y-76272017D01*
X27660000Y-76272017D01*
X27660000Y-75234435D01*
X36646040Y-75234435D01*
X37432000Y-76020395D01*
X38217960Y-75234435D01*
X38150980Y-74994344D01*
X37901952Y-74877244D01*
X37634865Y-74810977D01*
X37359983Y-74798090D01*
X37087867Y-74839078D01*
X36828977Y-74932364D01*
X36713020Y-74994344D01*
X36646040Y-75234435D01*
X27660000Y-75234435D01*
X27660000Y-74625565D01*
X29026040Y-74625565D01*
X29093020Y-74865656D01*
X29342048Y-74982756D01*
X29609135Y-75049023D01*
X29884017Y-75061910D01*
X30156133Y-75020922D01*
X30415023Y-74927636D01*
X30530980Y-74865656D01*
X30597960Y-74625565D01*
X52026040Y-74625565D01*
X52093020Y-74865656D01*
X52342048Y-74982756D01*
X52609135Y-75049023D01*
X52884017Y-75061910D01*
X53156133Y-75020922D01*
X53415023Y-74927636D01*
X53530980Y-74865656D01*
X53597960Y-74625565D01*
X52812000Y-73839605D01*
X52026040Y-74625565D01*
X30597960Y-74625565D01*
X29812000Y-73839605D01*
X29026040Y-74625565D01*
X27660000Y-74625565D01*
X27660000Y-73732017D01*
X28410090Y-73732017D01*
X28451078Y-74004133D01*
X28544364Y-74263023D01*
X28606344Y-74378980D01*
X28846435Y-74445960D01*
X29632395Y-73660000D01*
X29991605Y-73660000D01*
X30777565Y-74445960D01*
X31017656Y-74378980D01*
X31134756Y-74129952D01*
X31201023Y-73862865D01*
X31207157Y-73732017D01*
X51410090Y-73732017D01*
X51451078Y-74004133D01*
X51544364Y-74263023D01*
X51606344Y-74378980D01*
X51846435Y-74445960D01*
X52632395Y-73660000D01*
X52991605Y-73660000D01*
X53777565Y-74445960D01*
X54017656Y-74378980D01*
X54134756Y-74129952D01*
X54201023Y-73862865D01*
X54213910Y-73587983D01*
X54172922Y-73315867D01*
X54079636Y-73056977D01*
X54017656Y-72941020D01*
X53777565Y-72874040D01*
X52991605Y-73660000D01*
X52632395Y-73660000D01*
X51846435Y-72874040D01*
X51606344Y-72941020D01*
X51489244Y-73190048D01*
X51422977Y-73457135D01*
X51410090Y-73732017D01*
X31207157Y-73732017D01*
X31213910Y-73587983D01*
X31172922Y-73315867D01*
X31079636Y-73056977D01*
X31017656Y-72941020D01*
X30777565Y-72874040D01*
X29991605Y-73660000D01*
X29632395Y-73660000D01*
X28846435Y-72874040D01*
X28606344Y-72941020D01*
X28489244Y-73190048D01*
X28422977Y-73457135D01*
X28410090Y-73732017D01*
X27660000Y-73732017D01*
X27660000Y-72694435D01*
X29026040Y-72694435D01*
X29812000Y-73480395D01*
X30597960Y-72694435D01*
X52026040Y-72694435D01*
X52812000Y-73480395D01*
X53597960Y-72694435D01*
X53530980Y-72454344D01*
X53281952Y-72337244D01*
X53014865Y-72270977D01*
X52739983Y-72258090D01*
X52467867Y-72299078D01*
X52208977Y-72392364D01*
X52093020Y-72454344D01*
X52026040Y-72694435D01*
X30597960Y-72694435D01*
X30530980Y-72454344D01*
X30281952Y-72337244D01*
X30014865Y-72270977D01*
X29739983Y-72258090D01*
X29467867Y-72299078D01*
X29208977Y-72392364D01*
X29093020Y-72454344D01*
X29026040Y-72694435D01*
X27660000Y-72694435D01*
X27660000Y-72085565D01*
X36646040Y-72085565D01*
X36713020Y-72325656D01*
X36962048Y-72442756D01*
X37229135Y-72509023D01*
X37504017Y-72521910D01*
X37776133Y-72480922D01*
X38035023Y-72387636D01*
X38150980Y-72325656D01*
X38217960Y-72085565D01*
X37432000Y-71299605D01*
X36646040Y-72085565D01*
X27660000Y-72085565D01*
X27660000Y-71192017D01*
X36030090Y-71192017D01*
X36071078Y-71464133D01*
X36164364Y-71723023D01*
X36226344Y-71838980D01*
X36466435Y-71905960D01*
X37252395Y-71120000D01*
X37611605Y-71120000D01*
X38397565Y-71905960D01*
X38637656Y-71838980D01*
X38754756Y-71589952D01*
X38821023Y-71322865D01*
X38827157Y-71192017D01*
X59030090Y-71192017D01*
X59071078Y-71464133D01*
X59164364Y-71723023D01*
X59226344Y-71838980D01*
X59466435Y-71905960D01*
X60252395Y-71120000D01*
X59466435Y-70334040D01*
X59226344Y-70401020D01*
X59109244Y-70650048D01*
X59042977Y-70917135D01*
X59030090Y-71192017D01*
X38827157Y-71192017D01*
X38833910Y-71047983D01*
X38792922Y-70775867D01*
X38699636Y-70516977D01*
X38637656Y-70401020D01*
X38397565Y-70334040D01*
X37611605Y-71120000D01*
X37252395Y-71120000D01*
X36466435Y-70334040D01*
X36226344Y-70401020D01*
X36109244Y-70650048D01*
X36042977Y-70917135D01*
X36030090Y-71192017D01*
X27660000Y-71192017D01*
X27660000Y-70154435D01*
X36646040Y-70154435D01*
X37432000Y-70940395D01*
X38217960Y-70154435D01*
X38150980Y-69914344D01*
X37901952Y-69797244D01*
X37634865Y-69730977D01*
X37359983Y-69718090D01*
X37087867Y-69759078D01*
X36828977Y-69852364D01*
X36713020Y-69914344D01*
X36646040Y-70154435D01*
X27660000Y-70154435D01*
X27660000Y-61660000D01*
X61341000Y-61660000D01*
X61341000Y-70044654D01*
M02*
