M48
; DRILL file {KiCad (5.1.0)-1} date 30.08.2020 01:34:30
; FORMAT={-:-/ absolute / metric / decimal}
; #@! TF.CreationDate,2020-08-30T01:34:30+02:00
; #@! TF.GenerationSoftware,Kicad,Pcbnew,(5.1.0)-1
; #@! TF.FileFunction,Plated,1,2,PTH
FMAT,2
METRIC
T1C0.400
T2C0.762
T3C0.800
T4C1.000
T5C1.100
T6C1.200
T7C1.320
%
G90
G05
T1
X78.105Y-105.918
X81.534Y-73.152
X86.402Y-81.828
X86.614Y-99.822
X89.408Y-100.838
X89.636Y-89.941
X91.059Y-96.266
X91.739Y-97.116
X92.456Y-90.043
X93.954Y-118.643
X97.282Y-92.964
X100.965Y-96.647
X103.505Y-106.172
X103.632Y-118.745
X105.156Y-100.965
X107.061Y-117.865
X108.237Y-117.015
X108.966Y-113.665
X109.093Y-106.299
X109.728Y-95.25
X112.141Y-101.981
X113.411Y-101.981
X114.554Y-101.981
T2
X29.812Y-73.66
X37.432Y-71.12
X37.432Y-76.2
X52.812Y-73.66
X60.432Y-71.12
X60.432Y-76.2
X87.57Y-68.3
X90.11Y-68.3
X91.38Y-123.7
X92.65Y-68.3
X93.92Y-123.7
X95.19Y-68.3
X96.46Y-123.7
X97.73Y-68.3
X100.27Y-68.3
X101.54Y-123.7
X102.81Y-68.3
X104.08Y-123.7
X105.35Y-68.3
X106.62Y-123.7
X107.89Y-68.3
X110.43Y-68.3
T3
X80.772Y-92.202
X80.772Y-97.282
X83.312Y-94.742
X80.782Y-99.822
X80.782Y-104.902
X83.322Y-102.362
X31.496Y-113.246
X31.496Y-125.746
T4
X66.452Y-73.66
X75.057Y-73.152
X75.057Y-75.692
X83.439Y-108.077
X83.439Y-110.617
X83.439Y-113.157
X83.439Y-115.697
X75.057Y-84.836
X75.057Y-87.376
X92.202Y-105.684
X92.202Y-113.284
T5
X110.375Y-72.646
X110.375Y-85.346
X115.316Y-104.46
X115.316Y-107.0
T6
X31.496Y-94.138
X31.496Y-109.378
T7
X39.838Y-119.7
X39.878Y-94.3
X39.878Y-107.0
X70.358Y-96.84
X70.358Y-117.16
T0
M30
